<svg width="72" height="50" viewBox="0 0 72 50" fill="none" xmlns="http://www.w3.org/2000/svg">
<mask id="path-1-outside-1_2025_120" maskUnits="userSpaceOnUse" x="0" y="0" width="72" height="50" fill="black">
<rect fill="white" width="72" height="50"/>
<path fill-rule="evenodd" clip-rule="evenodd" d="M33.906 1L67.7094 16.755L67.1197 18.0203L64.8177 16.9474V29.7179V30.5157L63.4217 30.5157H60.1311H59.3333H56.4416H55.6439H53.151H52.3533H47.6667H46.8689H43.7778H42.9801H35.302H34.5043H27.4245H26.6268H26.0285H20.3447H19.7464H18.9487H15.7578H14.9601H12.2678H11.4701H8.67806H7.28205L7.28205 16.2038L6.2849 16.7132L5.64978 15.47L33.8692 1.05313L33.8755 1.06548L33.906 1ZM8.67806 15.4906L8.67806 29.7179H11.4701L11.4701 14.0641L8.67806 15.4906ZM12.2678 13.6566L12.2678 29.7179H14.9601L14.9601 12.2811L12.2678 13.6566ZM15.7578 11.8736L15.7578 29.7179H18.9487L18.9487 21.2422L18.9487 10.2434L15.7578 11.8736ZM19.7464 9.83587V20.5417L26.6268 17.861L26.6268 6.3208L19.7464 9.83587ZM27.4245 5.91326V19.0484V29.7179H34.5043V2.81904L33.9692 2.56966L27.4245 5.91326ZM35.302 3.19084L35.302 29.7179H42.9801V6.76941L35.302 3.19084ZM43.7778 7.1412L43.7778 29.7179H46.8689V8.58193L43.7778 7.1412ZM47.6667 8.95373L47.6667 29.7179H52.3533V11.138L47.6667 8.95373ZM53.151 11.5098L53.151 29.7179H55.6439V12.6717L53.151 11.5098ZM56.4416 13.0435V29.7179H59.3333V14.3913L56.4416 13.0435ZM60.1311 14.7631V29.7179H63.4217V16.2968L60.1311 14.7631ZM26.0285 19.5923L20.3447 21.8068V29.7179H26.0285V19.5923ZM1 31.5128V11.2707H2.39601L2.39601 31.5128H69.604V7.48148H53.151V6.08547H71V6.78348V7.48148V31.5128V32.9088H69.604H2.39601H1V31.5128ZM4.37449 49.0246C3.77852 49.0246 3.24161 48.9011 2.76375 48.6541C2.2859 48.4018 1.91007 48.0528 1.63624 47.6072C1.36778 47.1562 1.23356 46.6461 1.23356 46.077C1.23356 45.5078 1.36778 45.0005 1.63624 44.5548C1.91007 44.1038 2.2859 43.7548 2.76375 43.5078C3.24161 43.2555 3.77852 43.1293 4.37449 43.1293C4.92214 43.1293 5.41073 43.226 5.84026 43.4193C6.26979 43.6125 6.62415 43.8917 6.90334 44.2568L5.70335 45.328C5.35435 44.8877 4.94362 44.6676 4.47113 44.6676C4.07382 44.6676 3.75436 44.7964 3.51275 45.0541C3.27114 45.3065 3.15033 45.6474 3.15033 46.077C3.15033 46.5065 3.27114 46.8501 3.51275 47.1078C3.75436 47.3602 4.07382 47.4864 4.47113 47.4864C4.94362 47.4864 5.35435 47.2662 5.70335 46.826L6.90334 47.8971C6.62415 48.2622 6.26979 48.5414 5.84026 48.7347C5.41073 48.928 4.92214 49.0246 4.37449 49.0246ZM10.2899 49.0246C9.68314 49.0246 9.13818 48.8984 8.65496 48.6461C8.17173 48.3937 7.79321 48.0447 7.51939 47.5991C7.24556 47.1481 7.10865 46.6407 7.10865 46.077C7.10865 45.5132 7.24556 45.0085 7.51939 44.5629C7.79321 44.1119 8.17173 43.7602 8.65496 43.5078C9.13818 43.2555 9.68314 43.1293 10.2899 43.1293C10.8966 43.1293 11.4415 43.2555 11.9247 43.5078C12.408 43.7602 12.7865 44.1119 13.0603 44.5629C13.3341 45.0085 13.4711 45.5132 13.4711 46.077C13.4711 46.6407 13.3341 47.1481 13.0603 47.5991C12.7865 48.0447 12.408 48.3937 11.9247 48.6461C11.4415 48.8984 10.8966 49.0246 10.2899 49.0246ZM10.2899 47.4864C10.5261 47.4864 10.7382 47.43 10.9261 47.3172C11.1194 47.1991 11.2724 47.0354 11.3852 46.826C11.4979 46.6112 11.5543 46.3615 11.5543 46.077C11.5543 45.7924 11.4979 45.5454 11.3852 45.336C11.2724 45.1213 11.1194 44.9575 10.9261 44.8448C10.7382 44.7266 10.5261 44.6676 10.2899 44.6676C10.0536 44.6676 9.83885 44.7266 9.64556 44.8448C9.45764 44.9575 9.3073 45.1213 9.19455 45.336C9.0818 45.5454 9.02542 45.7924 9.02542 46.077C9.02542 46.3615 9.0818 46.6112 9.19455 46.826C9.3073 47.0354 9.45764 47.1991 9.64556 47.3172C9.83885 47.43 10.0536 47.4864 10.2899 47.4864ZM19.7179 48.8958H18.1555L16.0132 46.3347V48.8958H14.1609V43.2582H15.7233L17.8656 45.8192V43.2582H19.7179V48.8958ZM22.7357 49.0246C22.2686 49.0246 21.8122 48.9736 21.3666 48.8716C20.9263 48.7642 20.5639 48.6219 20.2794 48.4447L20.8914 47.0595C21.1599 47.2152 21.4606 47.3414 21.7935 47.438C22.1263 47.5293 22.4458 47.575 22.7518 47.575C23.0149 47.575 23.2028 47.5508 23.3156 47.5025C23.4284 47.4488 23.4847 47.3709 23.4847 47.2689C23.4847 47.1508 23.4096 47.0622 23.2592 47.0031C23.1143 46.9441 22.8726 46.8797 22.5344 46.8098C22.0995 46.7186 21.7371 46.6219 21.4471 46.5199C21.1572 46.4125 20.9049 46.2407 20.6901 46.0045C20.4753 45.7629 20.368 45.438 20.368 45.03C20.368 44.6756 20.4673 44.3535 20.6659 44.0635C20.8646 43.7736 21.1599 43.5454 21.5518 43.379C21.9492 43.2125 22.4297 43.1293 22.9935 43.1293C23.38 43.1293 23.7586 43.1723 24.129 43.2582C24.5049 43.3387 24.8351 43.4595 25.1196 43.6206L24.5478 44.9978C23.9948 44.7186 23.4713 44.579 22.9773 44.579C22.4888 44.579 22.2445 44.6971 22.2445 44.9333C22.2445 45.0461 22.3169 45.132 22.4619 45.1911C22.6069 45.2448 22.8458 45.3038 23.1787 45.3682C23.6082 45.4488 23.9706 45.5427 24.2659 45.6501C24.5612 45.7521 24.8163 45.9213 25.031 46.1575C25.2512 46.3937 25.3612 46.7159 25.3612 47.1239C25.3612 47.4783 25.2619 47.8005 25.0632 48.0904C24.8646 48.3749 24.5666 48.6031 24.1693 48.7749C23.7773 48.9414 23.2995 49.0246 22.7357 49.0246ZM27.0723 44.732H25.4213V43.2582H30.624V44.732H28.973V48.8958H27.0723V44.732ZM33.5338 47.4783H33.0183V48.8958H31.1177V43.2582H33.8317C34.3526 43.2582 34.8062 43.3441 35.1928 43.5159C35.5794 43.6877 35.8774 43.9347 36.0868 44.2568C36.2962 44.579 36.4009 44.9548 36.4009 45.3843C36.4009 45.787 36.3096 46.1387 36.127 46.4394C35.9445 46.7401 35.6814 46.979 35.3378 47.1562L36.5217 48.8958H34.4921L33.5338 47.4783ZM34.4841 45.3843C34.4841 45.175 34.4197 45.0139 34.2908 44.9011C34.1619 44.783 33.9687 44.7239 33.7109 44.7239H33.0183V46.0448H33.7109C33.9687 46.0448 34.1619 45.9884 34.2908 45.8756C34.4197 45.7575 34.4841 45.5937 34.4841 45.3843ZM39.8166 49.0246C38.9521 49.0246 38.2783 48.7911 37.7951 48.3239C37.3119 47.8568 37.0703 47.2018 37.0703 46.3588V43.2582H38.9709V46.3025C38.9709 46.7159 39.0434 47.0166 39.1884 47.2045C39.3387 47.3924 39.5535 47.4864 39.8327 47.4864C40.1119 47.4864 40.324 47.3924 40.4689 47.2045C40.6193 47.0166 40.6944 46.7159 40.6944 46.3025V43.2582H42.5629V46.3588C42.5629 47.2018 42.3213 47.8568 41.838 48.3239C41.3548 48.7911 40.681 49.0246 39.8166 49.0246ZM46.3495 49.0246C45.7536 49.0246 45.2167 48.9011 44.7388 48.6541C44.261 48.4018 43.8851 48.0528 43.6113 47.6072C43.3428 47.1562 43.2086 46.6461 43.2086 46.077C43.2086 45.5078 43.3428 45.0005 43.6113 44.5548C43.8851 44.1038 44.261 43.7548 44.7388 43.5078C45.2167 43.2555 45.7536 43.1293 46.3495 43.1293C46.8972 43.1293 47.3858 43.226 47.8153 43.4193C48.2448 43.6125 48.5992 43.8917 48.8784 44.2568L47.6784 45.328C47.3294 44.8877 46.9187 44.6676 46.4462 44.6676C46.0489 44.6676 45.7294 44.7964 45.4878 45.0541C45.2462 45.3065 45.1254 45.6474 45.1254 46.077C45.1254 46.5065 45.2462 46.8501 45.4878 47.1078C45.7294 47.3602 46.0489 47.4864 46.4462 47.4864C46.9187 47.4864 47.3294 47.2662 47.6784 46.826L48.8784 47.8971C48.5992 48.2622 48.2448 48.5414 47.8153 48.7347C47.3858 48.928 46.8972 49.0246 46.3495 49.0246ZM52.2246 49.0246C51.6287 49.0246 51.0918 48.9011 50.6139 48.6541C50.1361 48.4018 49.7602 48.0528 49.4864 47.6072C49.2179 47.1562 49.0837 46.6461 49.0837 46.077C49.0837 45.5078 49.2179 45.0005 49.4864 44.5548C49.7602 44.1038 50.1361 43.7548 50.6139 43.5078C51.0918 43.2555 51.6287 43.1293 52.2246 43.1293C52.7723 43.1293 53.2609 43.226 53.6904 43.4193C54.1199 43.6125 54.4743 43.8917 54.7535 44.2568L53.5535 45.328C53.2045 44.8877 52.7938 44.6676 52.3213 44.6676C51.924 44.6676 51.6045 44.7964 51.3629 45.0541C51.1213 45.3065 51.0005 45.6474 51.0005 46.077C51.0005 46.5065 51.1213 46.8501 51.3629 47.1078C51.6045 47.3602 51.924 47.4864 52.3213 47.4864C52.7938 47.4864 53.2045 47.2662 53.5535 46.826L54.7535 47.8971C54.4743 48.2622 54.1199 48.5414 53.6904 48.7347C53.2609 48.928 52.7723 49.0246 52.2246 49.0246ZM55.3023 43.2582H57.2029V48.8958H55.3023V43.2582ZM61.0736 49.0246C60.4669 49.0246 59.9219 48.8984 59.4387 48.6461C58.9555 48.3937 58.577 48.0447 58.3032 47.5991C58.0293 47.1481 57.8924 46.6407 57.8924 46.077C57.8924 45.5132 58.0293 45.0085 58.3032 44.5629C58.577 44.1119 58.9555 43.7602 59.4387 43.5078C59.9219 43.2555 60.4669 43.1293 61.0736 43.1293C61.6803 43.1293 62.2253 43.2555 62.7085 43.5078C63.1917 43.7602 63.5703 44.1119 63.8441 44.5629C64.1179 45.0085 64.2548 45.5132 64.2548 46.077C64.2548 46.6407 64.1179 47.1481 63.8441 47.5991C63.5703 48.0447 63.1917 48.3937 62.7085 48.6461C62.2253 48.8984 61.6803 49.0246 61.0736 49.0246ZM61.0736 47.4864C61.3099 47.4864 61.5219 47.43 61.7099 47.3172C61.9031 47.1991 62.0562 47.0354 62.1689 46.826C62.2817 46.6112 62.338 46.3615 62.338 46.077C62.338 45.7924 62.2817 45.5454 62.1689 45.336C62.0562 45.1213 61.9031 44.9575 61.7099 44.8448C61.5219 44.7266 61.3099 44.6676 61.0736 44.6676C60.8374 44.6676 60.6226 44.7266 60.4293 44.8448C60.2414 44.9575 60.0911 45.1213 59.9783 45.336C59.8656 45.5454 59.8092 45.7924 59.8092 46.077C59.8092 46.3615 59.8656 46.6112 59.9783 46.826C60.0911 47.0354 60.2414 47.1991 60.4293 47.3172C60.6226 47.43 60.8374 47.4864 61.0736 47.4864ZM61.2911 41.5105H63.0226L61.436 42.7991H60.228L61.2911 41.5105ZM70.5017 48.8958H68.9393L66.797 46.3347V48.8958H64.9447V43.2582H66.5071L68.6494 45.8192V43.2582H70.5017V48.8958ZM2.29175 40.3499C2.75104 40.4704 3.22755 40.5307 3.72128 40.5307C4.31836 40.5307 4.81209 40.4417 5.20248 40.2638C5.59862 40.0858 5.89429 39.8504 6.08948 39.5576C6.29042 39.2591 6.39089 38.9347 6.39089 38.5845C6.39089 38.2687 6.32774 38.0075 6.20144 37.8008C6.08087 37.5884 5.92012 37.419 5.71918 37.2927C5.51825 37.1607 5.29434 37.0574 5.04747 36.9827C4.80635 36.9023 4.56235 36.8363 4.31548 36.7847C4.07436 36.733 3.85046 36.6842 3.64378 36.6383C3.44284 36.5866 3.27922 36.5234 3.15291 36.4488C3.03235 36.3684 2.97207 36.2622 2.97207 36.1302C2.97207 36.0268 3.00364 35.935 3.0668 35.8546C3.12995 35.7742 3.23329 35.7111 3.37682 35.6651C3.52034 35.6135 3.7098 35.5876 3.94518 35.5876C4.20927 35.5876 4.48198 35.6278 4.76329 35.7082C5.0446 35.7828 5.32879 35.8977 5.61584 36.0527L6.14115 34.7868C5.84262 34.6145 5.50102 34.4853 5.11637 34.3992C4.73746 34.3074 4.34993 34.2614 3.9538 34.2614C3.36246 34.2614 2.86873 34.3504 2.47259 34.5284C2.07646 34.7064 1.77792 34.9418 1.57698 35.2346C1.38178 35.5274 1.28418 35.8546 1.28418 36.2163C1.28418 36.5378 1.34734 36.8047 1.47364 37.0172C1.59994 37.2238 1.76357 37.3932 1.9645 37.5253C2.16544 37.6516 2.38648 37.7549 2.6276 37.8353C2.87447 37.9156 3.11847 37.9817 3.35959 38.0333C3.60646 38.085 3.83036 38.1367 4.0313 38.1884C4.23224 38.24 4.39586 38.306 4.52216 38.3864C4.64847 38.4668 4.71162 38.5759 4.71162 38.7137C4.71162 38.8113 4.67717 38.8974 4.60828 38.972C4.54513 39.0409 4.44179 39.0983 4.29826 39.1442C4.15473 39.1844 3.96528 39.2045 3.72989 39.2045C3.37969 39.2045 3.02661 39.15 2.67066 39.0409C2.32045 38.9261 2.01043 38.7826 1.7406 38.6103L1.18084 39.8676C1.4679 40.0628 1.8382 40.2236 2.29175 40.3499ZM8.21192 34.382V40.4102H9.91703V34.382H8.21192ZM12.1635 34.382V40.4102H16.7449V39.0581H13.8686V34.382H12.1635ZM17.326 34.382L19.9009 40.4102H21.5802L24.1637 34.382H22.4758L20.8029 38.3113L19.1689 34.382H17.326ZM27.2378 37.9903V39.0926H30.3897V40.4102H25.5499V34.382H30.2777V35.6996H27.2378V36.7158H29.916V37.9903H27.2378ZM32.3693 34.382V40.4102H34.0744V38.8084H35.0051L36.0981 40.4102H37.9238L36.6229 38.5145C36.9876 38.339 37.2719 38.0983 37.476 37.7922C37.6941 37.4592 37.8032 37.066 37.8032 36.6124C37.8032 36.1531 37.6941 35.757 37.476 35.424C37.2578 35.0853 36.9478 34.8269 36.5459 34.649C36.1498 34.471 35.6761 34.382 35.125 34.382H32.3693ZM34.0744 37.4908H35.0217C35.3776 37.4908 35.6417 37.4133 35.8139 37.2583C35.9919 37.1033 36.0809 36.888 36.0809 36.6124C36.0809 36.3311 35.9919 36.1129 35.8139 35.9579C35.6417 35.8029 35.3776 35.7254 35.0217 35.7254H34.0744V37.4908ZM44.9961 40.3068C45.4037 40.4561 45.8458 40.5307 46.3223 40.5307C46.8792 40.5307 47.3758 40.4331 47.8121 40.2379C48.2542 40.037 48.6216 39.7557 48.9144 39.394L47.8293 38.4123C47.6341 38.6419 47.4188 38.817 47.1835 38.9376C46.9538 39.0581 46.6955 39.1184 46.4084 39.1184C46.1615 39.1184 45.9348 39.0782 45.7281 38.9978C45.5214 38.9175 45.3434 38.8026 45.1942 38.6534C45.0506 38.4984 44.9358 38.3147 44.8497 38.1022C44.7693 37.8898 44.7291 37.6544 44.7291 37.3961C44.7291 37.1377 44.7693 36.9023 44.8497 36.6899C44.9358 36.4775 45.0506 36.2967 45.1942 36.1474C45.3434 35.9924 45.5214 35.8747 45.7281 35.7943C45.9348 35.7139 46.1615 35.6737 46.4084 35.6737C46.6955 35.6737 46.9538 35.734 47.1835 35.8546C47.4188 35.9752 47.6341 36.1503 47.8293 36.3799L48.9144 35.3982C48.6216 35.0307 48.2542 34.7494 47.8121 34.5542C47.3758 34.359 46.8792 34.2614 46.3223 34.2614C45.8458 34.2614 45.4037 34.3389 44.9961 34.494C44.5942 34.6432 44.244 34.8585 43.9455 35.1398C43.6527 35.4211 43.423 35.7541 43.2566 36.1388C43.0901 36.5177 43.0068 36.9368 43.0068 37.3961C43.0068 37.8554 43.0901 38.2773 43.2566 38.662C43.423 39.0409 43.6527 39.371 43.9455 39.6523C44.244 39.9336 44.5942 40.1518 44.9961 40.3068ZM50.708 34.382V40.4102H55.2894V39.0581H52.4132V34.382H50.708ZM58.9941 34.382L56.3331 40.4102H58.0726L58.5427 39.239H61.0989L61.569 40.4102H63.343L60.6733 34.382H58.9941ZM60.5943 37.9817H59.0472L59.8208 36.0542L60.5943 37.9817ZM65.4311 39.7987C65.9306 40.2867 66.6253 40.5307 67.5152 40.5307C68.405 40.5307 69.0997 40.2867 69.5992 39.7987C70.0987 39.3107 70.3484 38.6189 70.3484 37.7233V34.382H68.6691V37.6717C68.6691 38.1884 68.5686 38.5587 68.3677 38.7826C68.1668 39.0065 67.8883 39.1184 67.5324 39.1184C67.1764 39.1184 66.8951 39.0065 66.6884 38.7826C66.4875 38.5587 66.387 38.1884 66.387 37.6717V34.382H64.6819V37.7233C64.6819 38.6189 64.9317 39.3107 65.4311 39.7987Z"/>
</mask>
<path fill-rule="evenodd" clip-rule="evenodd" d="M33.906 1L67.7094 16.755L67.1197 18.0203L64.8177 16.9474V29.7179V30.5157L63.4217 30.5157H60.1311H59.3333H56.4416H55.6439H53.151H52.3533H47.6667H46.8689H43.7778H42.9801H35.302H34.5043H27.4245H26.6268H26.0285H20.3447H19.7464H18.9487H15.7578H14.9601H12.2678H11.4701H8.67806H7.28205L7.28205 16.2038L6.2849 16.7132L5.64978 15.47L33.8692 1.05313L33.8755 1.06548L33.906 1ZM8.67806 15.4906L8.67806 29.7179H11.4701L11.4701 14.0641L8.67806 15.4906ZM12.2678 13.6566L12.2678 29.7179H14.9601L14.9601 12.2811L12.2678 13.6566ZM15.7578 11.8736L15.7578 29.7179H18.9487L18.9487 21.2422L18.9487 10.2434L15.7578 11.8736ZM19.7464 9.83587V20.5417L26.6268 17.861L26.6268 6.3208L19.7464 9.83587ZM27.4245 5.91326V19.0484V29.7179H34.5043V2.81904L33.9692 2.56966L27.4245 5.91326ZM35.302 3.19084L35.302 29.7179H42.9801V6.76941L35.302 3.19084ZM43.7778 7.1412L43.7778 29.7179H46.8689V8.58193L43.7778 7.1412ZM47.6667 8.95373L47.6667 29.7179H52.3533V11.138L47.6667 8.95373ZM53.151 11.5098L53.151 29.7179H55.6439V12.6717L53.151 11.5098ZM56.4416 13.0435V29.7179H59.3333V14.3913L56.4416 13.0435ZM60.1311 14.7631V29.7179H63.4217V16.2968L60.1311 14.7631ZM26.0285 19.5923L20.3447 21.8068V29.7179H26.0285V19.5923ZM1 31.5128V11.2707H2.39601L2.39601 31.5128H69.604V7.48148H53.151V6.08547H71V6.78348V7.48148V31.5128V32.9088H69.604H2.39601H1V31.5128ZM4.37449 49.0246C3.77852 49.0246 3.24161 48.9011 2.76375 48.6541C2.2859 48.4018 1.91007 48.0528 1.63624 47.6072C1.36778 47.1562 1.23356 46.6461 1.23356 46.077C1.23356 45.5078 1.36778 45.0005 1.63624 44.5548C1.91007 44.1038 2.2859 43.7548 2.76375 43.5078C3.24161 43.2555 3.77852 43.1293 4.37449 43.1293C4.92214 43.1293 5.41073 43.226 5.84026 43.4193C6.26979 43.6125 6.62415 43.8917 6.90334 44.2568L5.70335 45.328C5.35435 44.8877 4.94362 44.6676 4.47113 44.6676C4.07382 44.6676 3.75436 44.7964 3.51275 45.0541C3.27114 45.3065 3.15033 45.6474 3.15033 46.077C3.15033 46.5065 3.27114 46.8501 3.51275 47.1078C3.75436 47.3602 4.07382 47.4864 4.47113 47.4864C4.94362 47.4864 5.35435 47.2662 5.70335 46.826L6.90334 47.8971C6.62415 48.2622 6.26979 48.5414 5.84026 48.7347C5.41073 48.928 4.92214 49.0246 4.37449 49.0246ZM10.2899 49.0246C9.68314 49.0246 9.13818 48.8984 8.65496 48.6461C8.17173 48.3937 7.79321 48.0447 7.51939 47.5991C7.24556 47.1481 7.10865 46.6407 7.10865 46.077C7.10865 45.5132 7.24556 45.0085 7.51939 44.5629C7.79321 44.1119 8.17173 43.7602 8.65496 43.5078C9.13818 43.2555 9.68314 43.1293 10.2899 43.1293C10.8966 43.1293 11.4415 43.2555 11.9247 43.5078C12.408 43.7602 12.7865 44.1119 13.0603 44.5629C13.3341 45.0085 13.4711 45.5132 13.4711 46.077C13.4711 46.6407 13.3341 47.1481 13.0603 47.5991C12.7865 48.0447 12.408 48.3937 11.9247 48.6461C11.4415 48.8984 10.8966 49.0246 10.2899 49.0246ZM10.2899 47.4864C10.5261 47.4864 10.7382 47.43 10.9261 47.3172C11.1194 47.1991 11.2724 47.0354 11.3852 46.826C11.4979 46.6112 11.5543 46.3615 11.5543 46.077C11.5543 45.7924 11.4979 45.5454 11.3852 45.336C11.2724 45.1213 11.1194 44.9575 10.9261 44.8448C10.7382 44.7266 10.5261 44.6676 10.2899 44.6676C10.0536 44.6676 9.83885 44.7266 9.64556 44.8448C9.45764 44.9575 9.3073 45.1213 9.19455 45.336C9.0818 45.5454 9.02542 45.7924 9.02542 46.077C9.02542 46.3615 9.0818 46.6112 9.19455 46.826C9.3073 47.0354 9.45764 47.1991 9.64556 47.3172C9.83885 47.43 10.0536 47.4864 10.2899 47.4864ZM19.7179 48.8958H18.1555L16.0132 46.3347V48.8958H14.1609V43.2582H15.7233L17.8656 45.8192V43.2582H19.7179V48.8958ZM22.7357 49.0246C22.2686 49.0246 21.8122 48.9736 21.3666 48.8716C20.9263 48.7642 20.5639 48.6219 20.2794 48.4447L20.8914 47.0595C21.1599 47.2152 21.4606 47.3414 21.7935 47.438C22.1263 47.5293 22.4458 47.575 22.7518 47.575C23.0149 47.575 23.2028 47.5508 23.3156 47.5025C23.4284 47.4488 23.4847 47.3709 23.4847 47.2689C23.4847 47.1508 23.4096 47.0622 23.2592 47.0031C23.1143 46.9441 22.8726 46.8797 22.5344 46.8098C22.0995 46.7186 21.7371 46.6219 21.4471 46.5199C21.1572 46.4125 20.9049 46.2407 20.6901 46.0045C20.4753 45.7629 20.368 45.438 20.368 45.03C20.368 44.6756 20.4673 44.3535 20.6659 44.0635C20.8646 43.7736 21.1599 43.5454 21.5518 43.379C21.9492 43.2125 22.4297 43.1293 22.9935 43.1293C23.38 43.1293 23.7586 43.1723 24.129 43.2582C24.5049 43.3387 24.8351 43.4595 25.1196 43.6206L24.5478 44.9978C23.9948 44.7186 23.4713 44.579 22.9773 44.579C22.4888 44.579 22.2445 44.6971 22.2445 44.9333C22.2445 45.0461 22.3169 45.132 22.4619 45.1911C22.6069 45.2448 22.8458 45.3038 23.1787 45.3682C23.6082 45.4488 23.9706 45.5427 24.2659 45.6501C24.5612 45.7521 24.8163 45.9213 25.031 46.1575C25.2512 46.3937 25.3612 46.7159 25.3612 47.1239C25.3612 47.4783 25.2619 47.8005 25.0632 48.0904C24.8646 48.3749 24.5666 48.6031 24.1693 48.7749C23.7773 48.9414 23.2995 49.0246 22.7357 49.0246ZM27.0723 44.732H25.4213V43.2582H30.624V44.732H28.973V48.8958H27.0723V44.732ZM33.5338 47.4783H33.0183V48.8958H31.1177V43.2582H33.8317C34.3526 43.2582 34.8062 43.3441 35.1928 43.5159C35.5794 43.6877 35.8774 43.9347 36.0868 44.2568C36.2962 44.579 36.4009 44.9548 36.4009 45.3843C36.4009 45.787 36.3096 46.1387 36.127 46.4394C35.9445 46.7401 35.6814 46.979 35.3378 47.1562L36.5217 48.8958H34.4921L33.5338 47.4783ZM34.4841 45.3843C34.4841 45.175 34.4197 45.0139 34.2908 44.9011C34.1619 44.783 33.9687 44.7239 33.7109 44.7239H33.0183V46.0448H33.7109C33.9687 46.0448 34.1619 45.9884 34.2908 45.8756C34.4197 45.7575 34.4841 45.5937 34.4841 45.3843ZM39.8166 49.0246C38.9521 49.0246 38.2783 48.7911 37.7951 48.3239C37.3119 47.8568 37.0703 47.2018 37.0703 46.3588V43.2582H38.9709V46.3025C38.9709 46.7159 39.0434 47.0166 39.1884 47.2045C39.3387 47.3924 39.5535 47.4864 39.8327 47.4864C40.1119 47.4864 40.324 47.3924 40.4689 47.2045C40.6193 47.0166 40.6944 46.7159 40.6944 46.3025V43.2582H42.5629V46.3588C42.5629 47.2018 42.3213 47.8568 41.838 48.3239C41.3548 48.7911 40.681 49.0246 39.8166 49.0246ZM46.3495 49.0246C45.7536 49.0246 45.2167 48.9011 44.7388 48.6541C44.261 48.4018 43.8851 48.0528 43.6113 47.6072C43.3428 47.1562 43.2086 46.6461 43.2086 46.077C43.2086 45.5078 43.3428 45.0005 43.6113 44.5548C43.8851 44.1038 44.261 43.7548 44.7388 43.5078C45.2167 43.2555 45.7536 43.1293 46.3495 43.1293C46.8972 43.1293 47.3858 43.226 47.8153 43.4193C48.2448 43.6125 48.5992 43.8917 48.8784 44.2568L47.6784 45.328C47.3294 44.8877 46.9187 44.6676 46.4462 44.6676C46.0489 44.6676 45.7294 44.7964 45.4878 45.0541C45.2462 45.3065 45.1254 45.6474 45.1254 46.077C45.1254 46.5065 45.2462 46.8501 45.4878 47.1078C45.7294 47.3602 46.0489 47.4864 46.4462 47.4864C46.9187 47.4864 47.3294 47.2662 47.6784 46.826L48.8784 47.8971C48.5992 48.2622 48.2448 48.5414 47.8153 48.7347C47.3858 48.928 46.8972 49.0246 46.3495 49.0246ZM52.2246 49.0246C51.6287 49.0246 51.0918 48.9011 50.6139 48.6541C50.1361 48.4018 49.7602 48.0528 49.4864 47.6072C49.2179 47.1562 49.0837 46.6461 49.0837 46.077C49.0837 45.5078 49.2179 45.0005 49.4864 44.5548C49.7602 44.1038 50.1361 43.7548 50.6139 43.5078C51.0918 43.2555 51.6287 43.1293 52.2246 43.1293C52.7723 43.1293 53.2609 43.226 53.6904 43.4193C54.1199 43.6125 54.4743 43.8917 54.7535 44.2568L53.5535 45.328C53.2045 44.8877 52.7938 44.6676 52.3213 44.6676C51.924 44.6676 51.6045 44.7964 51.3629 45.0541C51.1213 45.3065 51.0005 45.6474 51.0005 46.077C51.0005 46.5065 51.1213 46.8501 51.3629 47.1078C51.6045 47.3602 51.924 47.4864 52.3213 47.4864C52.7938 47.4864 53.2045 47.2662 53.5535 46.826L54.7535 47.8971C54.4743 48.2622 54.1199 48.5414 53.6904 48.7347C53.2609 48.928 52.7723 49.0246 52.2246 49.0246ZM55.3023 43.2582H57.2029V48.8958H55.3023V43.2582ZM61.0736 49.0246C60.4669 49.0246 59.9219 48.8984 59.4387 48.6461C58.9555 48.3937 58.577 48.0447 58.3032 47.5991C58.0293 47.1481 57.8924 46.6407 57.8924 46.077C57.8924 45.5132 58.0293 45.0085 58.3032 44.5629C58.577 44.1119 58.9555 43.7602 59.4387 43.5078C59.9219 43.2555 60.4669 43.1293 61.0736 43.1293C61.6803 43.1293 62.2253 43.2555 62.7085 43.5078C63.1917 43.7602 63.5703 44.1119 63.8441 44.5629C64.1179 45.0085 64.2548 45.5132 64.2548 46.077C64.2548 46.6407 64.1179 47.1481 63.8441 47.5991C63.5703 48.0447 63.1917 48.3937 62.7085 48.6461C62.2253 48.8984 61.6803 49.0246 61.0736 49.0246ZM61.0736 47.4864C61.3099 47.4864 61.5219 47.43 61.7099 47.3172C61.9031 47.1991 62.0562 47.0354 62.1689 46.826C62.2817 46.6112 62.338 46.3615 62.338 46.077C62.338 45.7924 62.2817 45.5454 62.1689 45.336C62.0562 45.1213 61.9031 44.9575 61.7099 44.8448C61.5219 44.7266 61.3099 44.6676 61.0736 44.6676C60.8374 44.6676 60.6226 44.7266 60.4293 44.8448C60.2414 44.9575 60.0911 45.1213 59.9783 45.336C59.8656 45.5454 59.8092 45.7924 59.8092 46.077C59.8092 46.3615 59.8656 46.6112 59.9783 46.826C60.0911 47.0354 60.2414 47.1991 60.4293 47.3172C60.6226 47.43 60.8374 47.4864 61.0736 47.4864ZM61.2911 41.5105H63.0226L61.436 42.7991H60.228L61.2911 41.5105ZM70.5017 48.8958H68.9393L66.797 46.3347V48.8958H64.9447V43.2582H66.5071L68.6494 45.8192V43.2582H70.5017V48.8958ZM2.29175 40.3499C2.75104 40.4704 3.22755 40.5307 3.72128 40.5307C4.31836 40.5307 4.81209 40.4417 5.20248 40.2638C5.59862 40.0858 5.89429 39.8504 6.08948 39.5576C6.29042 39.2591 6.39089 38.9347 6.39089 38.5845C6.39089 38.2687 6.32774 38.0075 6.20144 37.8008C6.08087 37.5884 5.92012 37.419 5.71918 37.2927C5.51825 37.1607 5.29434 37.0574 5.04747 36.9827C4.80635 36.9023 4.56235 36.8363 4.31548 36.7847C4.07436 36.733 3.85046 36.6842 3.64378 36.6383C3.44284 36.5866 3.27922 36.5234 3.15291 36.4488C3.03235 36.3684 2.97207 36.2622 2.97207 36.1302C2.97207 36.0268 3.00364 35.935 3.0668 35.8546C3.12995 35.7742 3.23329 35.7111 3.37682 35.6651C3.52034 35.6135 3.7098 35.5876 3.94518 35.5876C4.20927 35.5876 4.48198 35.6278 4.76329 35.7082C5.0446 35.7828 5.32879 35.8977 5.61584 36.0527L6.14115 34.7868C5.84262 34.6145 5.50102 34.4853 5.11637 34.3992C4.73746 34.3074 4.34993 34.2614 3.9538 34.2614C3.36246 34.2614 2.86873 34.3504 2.47259 34.5284C2.07646 34.7064 1.77792 34.9418 1.57698 35.2346C1.38178 35.5274 1.28418 35.8546 1.28418 36.2163C1.28418 36.5378 1.34734 36.8047 1.47364 37.0172C1.59994 37.2238 1.76357 37.3932 1.9645 37.5253C2.16544 37.6516 2.38648 37.7549 2.6276 37.8353C2.87447 37.9156 3.11847 37.9817 3.35959 38.0333C3.60646 38.085 3.83036 38.1367 4.0313 38.1884C4.23224 38.24 4.39586 38.306 4.52216 38.3864C4.64847 38.4668 4.71162 38.5759 4.71162 38.7137C4.71162 38.8113 4.67717 38.8974 4.60828 38.972C4.54513 39.0409 4.44179 39.0983 4.29826 39.1442C4.15473 39.1844 3.96528 39.2045 3.72989 39.2045C3.37969 39.2045 3.02661 39.15 2.67066 39.0409C2.32045 38.9261 2.01043 38.7826 1.7406 38.6103L1.18084 39.8676C1.4679 40.0628 1.8382 40.2236 2.29175 40.3499ZM8.21192 34.382V40.4102H9.91703V34.382H8.21192ZM12.1635 34.382V40.4102H16.7449V39.0581H13.8686V34.382H12.1635ZM17.326 34.382L19.9009 40.4102H21.5802L24.1637 34.382H22.4758L20.8029 38.3113L19.1689 34.382H17.326ZM27.2378 37.9903V39.0926H30.3897V40.4102H25.5499V34.382H30.2777V35.6996H27.2378V36.7158H29.916V37.9903H27.2378ZM32.3693 34.382V40.4102H34.0744V38.8084H35.0051L36.0981 40.4102H37.9238L36.6229 38.5145C36.9876 38.339 37.2719 38.0983 37.476 37.7922C37.6941 37.4592 37.8032 37.066 37.8032 36.6124C37.8032 36.1531 37.6941 35.757 37.476 35.424C37.2578 35.0853 36.9478 34.8269 36.5459 34.649C36.1498 34.471 35.6761 34.382 35.125 34.382H32.3693ZM34.0744 37.4908H35.0217C35.3776 37.4908 35.6417 37.4133 35.8139 37.2583C35.9919 37.1033 36.0809 36.888 36.0809 36.6124C36.0809 36.3311 35.9919 36.1129 35.8139 35.9579C35.6417 35.8029 35.3776 35.7254 35.0217 35.7254H34.0744V37.4908ZM44.9961 40.3068C45.4037 40.4561 45.8458 40.5307 46.3223 40.5307C46.8792 40.5307 47.3758 40.4331 47.8121 40.2379C48.2542 40.037 48.6216 39.7557 48.9144 39.394L47.8293 38.4123C47.6341 38.6419 47.4188 38.817 47.1835 38.9376C46.9538 39.0581 46.6955 39.1184 46.4084 39.1184C46.1615 39.1184 45.9348 39.0782 45.7281 38.9978C45.5214 38.9175 45.3434 38.8026 45.1942 38.6534C45.0506 38.4984 44.9358 38.3147 44.8497 38.1022C44.7693 37.8898 44.7291 37.6544 44.7291 37.3961C44.7291 37.1377 44.7693 36.9023 44.8497 36.6899C44.9358 36.4775 45.0506 36.2967 45.1942 36.1474C45.3434 35.9924 45.5214 35.8747 45.7281 35.7943C45.9348 35.7139 46.1615 35.6737 46.4084 35.6737C46.6955 35.6737 46.9538 35.734 47.1835 35.8546C47.4188 35.9752 47.6341 36.1503 47.8293 36.3799L48.9144 35.3982C48.6216 35.0307 48.2542 34.7494 47.8121 34.5542C47.3758 34.359 46.8792 34.2614 46.3223 34.2614C45.8458 34.2614 45.4037 34.3389 44.9961 34.494C44.5942 34.6432 44.244 34.8585 43.9455 35.1398C43.6527 35.4211 43.423 35.7541 43.2566 36.1388C43.0901 36.5177 43.0068 36.9368 43.0068 37.3961C43.0068 37.8554 43.0901 38.2773 43.2566 38.662C43.423 39.0409 43.6527 39.371 43.9455 39.6523C44.244 39.9336 44.5942 40.1518 44.9961 40.3068ZM50.708 34.382V40.4102H55.2894V39.0581H52.4132V34.382H50.708ZM58.9941 34.382L56.3331 40.4102H58.0726L58.5427 39.239H61.0989L61.569 40.4102H63.343L60.6733 34.382H58.9941ZM60.5943 37.9817H59.0472L59.8208 36.0542L60.5943 37.9817ZM65.4311 39.7987C65.9306 40.2867 66.6253 40.5307 67.5152 40.5307C68.405 40.5307 69.0997 40.2867 69.5992 39.7987C70.0987 39.3107 70.3484 38.6189 70.3484 37.7233V34.382H68.6691V37.6717C68.6691 38.1884 68.5686 38.5587 68.3677 38.7826C68.1668 39.0065 67.8883 39.1184 67.5324 39.1184C67.1764 39.1184 66.8951 39.0065 66.6884 38.7826C66.4875 38.5587 66.387 38.1884 66.387 37.6717V34.382H64.6819V37.7233C64.6819 38.6189 64.9317 39.3107 65.4311 39.7987Z" fill="#E6D5C0"/>
<path d="M67.7094 16.755L67.8463 16.8188L67.9101 16.6819L67.7732 16.6181L67.7094 16.755ZM33.906 1L33.9698 0.863105L33.8329 0.799302L33.7691 0.936196L33.906 1ZM67.1197 18.0203L67.0559 18.1572L67.1928 18.221L67.2566 18.0841L67.1197 18.0203ZM64.8177 16.9474L64.8815 16.8105L64.6666 16.7104V16.9474H64.8177ZM64.8177 30.5157L64.8177 30.6667L64.9687 30.6667V30.5157H64.8177ZM63.4217 30.5157L63.4217 30.6667L63.4217 30.6667L63.4217 30.5157ZM7.28205 30.5157L7.13102 30.5157L7.13102 30.6667H7.28205V30.5157ZM7.28205 16.2038L7.43308 16.2038L7.43308 15.957L7.21334 16.0693L7.28205 16.2038ZM6.2849 16.7132L6.1504 16.7819L6.21912 16.9164L6.35361 16.8477L6.2849 16.7132ZM5.64978 15.47L5.58107 15.3355L5.44657 15.4042L5.51529 15.5387L5.64978 15.47ZM33.8692 1.05313L34.0037 0.984416L33.9349 0.849914L33.8004 0.918629L33.8692 1.05313ZM33.8755 1.06548L33.741 1.13419L33.8817 1.40965L34.0124 1.12928L33.8755 1.06548ZM8.67806 29.7179L8.52703 29.7179L8.52703 29.869H8.67806V29.7179ZM8.67806 15.4906L8.60935 15.3561L8.52703 15.3981L8.52703 15.4906L8.67806 15.4906ZM11.4701 29.7179V29.869H11.6211L11.6211 29.7179L11.4701 29.7179ZM11.4701 14.0641L11.6211 14.0641L11.6211 13.8174L11.4014 13.9297L11.4701 14.0641ZM12.2678 29.7179L12.1168 29.7179L12.1168 29.869H12.2678V29.7179ZM12.2678 13.6566L12.1991 13.5221L12.1168 13.5642L12.1168 13.6566L12.2678 13.6566ZM14.9601 29.7179V29.869H15.1111L15.1111 29.7179L14.9601 29.7179ZM14.9601 12.2811L15.1111 12.2811L15.1111 12.0344L14.8914 12.1466L14.9601 12.2811ZM15.7578 29.7179L15.6068 29.7179L15.6068 29.869H15.7578V29.7179ZM15.7578 11.8736L15.6891 11.7391L15.6068 11.7812L15.6068 11.8736L15.7578 11.8736ZM18.9487 29.7179V29.869H19.0998L19.0998 29.7179L18.9487 29.7179ZM18.9487 21.2422L18.7977 21.2422L18.7977 21.2422L18.9487 21.2422ZM18.9487 10.2434L19.0998 10.2434L19.0998 9.99665L18.88 10.1089L18.9487 10.2434ZM19.7464 20.5417H19.5954V20.7626L19.8013 20.6824L19.7464 20.5417ZM19.7464 9.83587L19.6777 9.70138L19.5954 9.74343V9.83587H19.7464ZM26.6268 17.861L26.6816 18.0017L26.7778 17.9643L26.7778 17.861L26.6268 17.861ZM26.6268 6.3208L26.7778 6.3208L26.7778 6.07404L26.5581 6.1863L26.6268 6.3208ZM27.4245 5.91326L27.3558 5.77876L27.2735 5.82081V5.91326H27.4245ZM27.4245 29.7179H27.2735V29.869H27.4245V29.7179ZM34.5043 29.7179V29.869H34.6553V29.7179H34.5043ZM34.5043 2.81904H34.6553V2.7228L34.5681 2.68215L34.5043 2.81904ZM33.9692 2.56966L34.033 2.43276L33.9662 2.40161L33.9005 2.43516L33.9692 2.56966ZM35.302 29.7179L35.151 29.7179L35.151 29.869H35.302V29.7179ZM35.302 3.19084L35.3658 3.05394L35.151 2.95381L35.151 3.19084L35.302 3.19084ZM42.9801 29.7179V29.869H43.1311V29.7179H42.9801ZM42.9801 6.76941H43.1311V6.67317L43.0439 6.63251L42.9801 6.76941ZM43.7778 29.7179L43.6267 29.7179L43.6267 29.869H43.7778V29.7179ZM43.7778 7.1412L43.8416 7.00431L43.6267 6.90418L43.6267 7.1412L43.7778 7.1412ZM46.8689 29.7179V29.869H47.02V29.7179H46.8689ZM46.8689 8.58193H47.02V8.48569L46.9327 8.44503L46.8689 8.58193ZM47.6667 29.7179L47.5156 29.7179L47.5156 29.869H47.6667V29.7179ZM47.6667 8.95373L47.7305 8.81683L47.5156 8.7167L47.5156 8.95373L47.6667 8.95373ZM52.3533 29.7179V29.869H52.5043V29.7179H52.3533ZM52.3533 11.138H52.5043V11.0418L52.4171 11.0012L52.3533 11.138ZM53.151 29.7179L53 29.7179L53 29.869H53.151V29.7179ZM53.151 11.5098L53.2148 11.3729L53 11.2728L53 11.5098L53.151 11.5098ZM55.6439 29.7179V29.869H55.7949V29.7179H55.6439ZM55.6439 12.6717H55.7949V12.5755L55.7077 12.5348L55.6439 12.6717ZM56.4416 29.7179H56.2906V29.869H56.4416V29.7179ZM56.4416 13.0435L56.5054 12.9066L56.2906 12.8065V13.0435H56.4416ZM59.3333 29.7179V29.869H59.4844V29.7179H59.3333ZM59.3333 14.3913H59.4844V14.295L59.3971 14.2544L59.3333 14.3913ZM60.1311 29.7179H59.98V29.869H60.1311V29.7179ZM60.1311 14.7631L60.1949 14.6262L59.98 14.5261V14.7631H60.1311ZM63.4217 29.7179V29.869H63.5727V29.7179H63.4217ZM63.4217 16.2968H63.5727V16.2005L63.4855 16.1599L63.4217 16.2968ZM20.3447 21.8068L20.2899 21.6661L20.1937 21.7035V21.8068H20.3447ZM26.0285 19.5923H26.1795V19.3714L25.9737 19.4516L26.0285 19.5923ZM20.3447 29.7179H20.1937V29.869H20.3447V29.7179ZM26.0285 29.7179V29.869H26.1795V29.7179H26.0285ZM1 11.2707V11.1196H0.848967V11.2707H1ZM2.39601 11.2707L2.54704 11.2707L2.54704 11.1196H2.39601V11.2707ZM2.39601 31.5128L2.24498 31.5128L2.24498 31.6639H2.39601V31.5128ZM69.604 31.5128V31.6639H69.755V31.5128H69.604ZM69.604 7.48148H69.755V7.33045H69.604V7.48148ZM53.151 7.48148H53V7.63251H53.151V7.48148ZM53.151 6.08547V5.93444H53V6.08547H53.151ZM71 6.08547H71.151V5.93444H71V6.08547ZM71 32.9088V33.0599H71.151V32.9088H71ZM1 32.9088H0.848967V33.0599H1V32.9088ZM2.76375 48.6541L2.69322 48.7877L2.69441 48.7883L2.76375 48.6541ZM1.63624 47.6072L1.50645 47.6844L1.50756 47.6862L1.63624 47.6072ZM1.63624 44.5548L1.50714 44.4764L1.50687 44.4769L1.63624 44.5548ZM2.76375 43.5078L2.8331 43.642L2.83428 43.6414L2.76375 43.5078ZM5.84026 43.4193L5.77828 43.557L5.77828 43.557L5.84026 43.4193ZM6.90334 44.2568L7.00392 44.3695L7.10835 44.2763L7.02332 44.1651L6.90334 44.2568ZM5.70335 45.328L5.58499 45.4218L5.68446 45.5473L5.80392 45.4406L5.70335 45.328ZM3.51275 45.0541L3.62184 45.1586L3.62293 45.1574L3.51275 45.0541ZM3.51275 47.1078L3.40256 47.2111L3.40365 47.2123L3.51275 47.1078ZM5.70335 46.826L5.80392 46.7133L5.68446 46.6066L5.58499 46.7321L5.70335 46.826ZM6.90334 47.8971L7.02332 47.9888L7.10835 47.8776L7.00392 47.7844L6.90334 47.8971ZM5.84026 48.7347L5.90224 48.8724L5.90224 48.8724L5.84026 48.7347ZM7.51939 47.5991L7.39028 47.6775L7.3907 47.6782L7.51939 47.5991ZM7.51939 44.5629L7.64807 44.6419L7.64849 44.6413L7.51939 44.5629ZM11.9247 43.5078L11.9947 43.374L11.9947 43.374L11.9247 43.5078ZM13.0603 44.5629L12.9312 44.6413L12.9316 44.6419L13.0603 44.5629ZM13.0603 47.5991L13.189 47.6782L13.1894 47.6775L13.0603 47.5991ZM11.9247 48.6461L11.9947 48.78L11.9947 48.78L11.9247 48.6461ZM10.9261 47.3172L11.0038 47.4467L11.0048 47.4461L10.9261 47.3172ZM11.3852 46.826L11.5181 46.8976L11.5189 46.8962L11.3852 46.826ZM11.3852 45.336L11.2514 45.4062L11.2522 45.4076L11.3852 45.336ZM10.9261 44.8448L10.8457 44.9727L10.85 44.9752L10.9261 44.8448ZM9.64556 44.8448L9.72327 44.9743L9.72431 44.9736L9.64556 44.8448ZM9.19455 45.336L9.32754 45.4076L9.32828 45.4062L9.19455 45.336ZM9.19455 46.826L9.06082 46.8962L9.06157 46.8976L9.19455 46.826ZM9.64556 47.3172L9.56514 47.4452L9.56946 47.4477L9.64556 47.3172ZM18.1555 48.8958L18.0397 48.9927L18.085 49.0468H18.1555V48.8958ZM19.7179 48.8958V49.0468H19.869V48.8958H19.7179ZM16.0132 46.3347L16.1291 46.2378L15.8622 45.9187V46.3347H16.0132ZM16.0132 48.8958V49.0468H16.1643V48.8958H16.0132ZM14.1609 48.8958H14.0099V49.0468H14.1609V48.8958ZM14.1609 43.2582V43.1071H14.0099V43.2582H14.1609ZM15.7233 43.2582L15.8392 43.1613L15.7939 43.1071H15.7233V43.2582ZM17.8656 45.8192L17.7497 45.9162L18.0166 46.2352V45.8192H17.8656ZM17.8656 43.2582V43.1071H17.7146V43.2582H17.8656ZM19.7179 43.2582H19.869V43.1071H19.7179V43.2582ZM21.3666 48.8716L21.3308 49.0183L21.3329 49.0188L21.3666 48.8716ZM20.2794 48.4447L20.1412 48.3837L20.0882 48.5037L20.1995 48.573L20.2794 48.4447ZM20.8914 47.0595L20.9672 46.9289L20.8214 46.8443L20.7533 46.9985L20.8914 47.0595ZM21.7935 47.438L21.7513 47.5831L21.7535 47.5837L21.7935 47.438ZM23.3156 47.5025L23.3751 47.6414L23.3805 47.6388L23.3156 47.5025ZM23.2592 47.0031L23.2022 47.143L23.204 47.1437L23.2592 47.0031ZM22.5344 46.8098L22.5034 46.9577L22.5039 46.9578L22.5344 46.8098ZM21.4471 46.5199L21.3947 46.6616L21.397 46.6624L21.4471 46.5199ZM20.6901 46.0045L20.5772 46.1048L20.5783 46.1061L20.6901 46.0045ZM20.6659 44.0635L20.5413 43.9782L20.5413 43.9782L20.6659 44.0635ZM21.5518 43.379L21.4935 43.2397L21.4928 43.24L21.5518 43.379ZM24.129 43.2582L24.0949 43.4053L24.0974 43.4059L24.129 43.2582ZM25.1196 43.6206L25.2591 43.6785L25.3104 43.555L25.194 43.4892L25.1196 43.6206ZM24.5478 44.9978L24.4797 45.1326L24.6249 45.2059L24.6873 45.0557L24.5478 44.9978ZM22.4619 45.1911L22.4049 45.331L22.4095 45.3327L22.4619 45.1911ZM23.1787 45.3682L23.15 45.5165L23.1509 45.5167L23.1787 45.3682ZM24.2659 45.6501L24.2143 45.7921L24.2166 45.7929L24.2659 45.6501ZM25.031 46.1575L24.9193 46.2591L24.9205 46.2605L25.031 46.1575ZM25.0632 48.0904L25.1871 48.1768L25.1878 48.1758L25.0632 48.0904ZM24.1693 48.7749L24.2283 48.914L24.2292 48.9136L24.1693 48.7749ZM25.4213 44.732H25.2703V44.883H25.4213V44.732ZM27.0723 44.732H27.2234V44.581H27.0723V44.732ZM25.4213 43.2582V43.1071H25.2703V43.2582H25.4213ZM30.624 43.2582H30.775V43.1071H30.624V43.2582ZM30.624 44.732V44.883H30.775V44.732H30.624ZM28.973 44.732V44.581H28.822V44.732H28.973ZM28.973 48.8958V49.0468H29.124V48.8958H28.973ZM27.0723 48.8958H26.9213V49.0468H27.0723V48.8958ZM33.0183 47.4783V47.3273H32.8673V47.4783H33.0183ZM33.5338 47.4783L33.6589 47.3937L33.614 47.3273H33.5338V47.4783ZM33.0183 48.8958V49.0468H33.1694V48.8958H33.0183ZM31.1177 48.8958H30.9666V49.0468H31.1177V48.8958ZM31.1177 43.2582V43.1071H30.9666V43.2582H31.1177ZM35.1928 43.5159L35.2542 43.3779L35.2542 43.3779L35.1928 43.5159ZM36.0868 44.2568L36.2134 44.1745L36.2134 44.1745L36.0868 44.2568ZM36.127 46.4394L36.2561 46.5178L36.2562 46.5178L36.127 46.4394ZM35.3378 47.1562L35.2686 47.0219L35.1169 47.1001L35.2129 47.2411L35.3378 47.1562ZM36.5217 48.8958V49.0468H36.8072L36.6465 48.8108L36.5217 48.8958ZM34.4921 48.8958L34.367 48.9803L34.412 49.0468H34.4921V48.8958ZM34.2908 44.9011L34.1887 45.0125L34.1914 45.0148L34.2908 44.9011ZM33.0183 44.7239V44.5729H32.8673V44.7239H33.0183ZM33.0183 46.0448H32.8673V46.1958H33.0183V46.0448ZM34.2908 45.8756L34.3903 45.9893L34.3929 45.987L34.2908 45.8756ZM37.7951 48.3239L37.6901 48.4325L37.6901 48.4325L37.7951 48.3239ZM37.0703 43.2582V43.1071H36.9192V43.2582H37.0703ZM38.9709 43.2582H39.122V43.1071H38.9709V43.2582ZM39.1884 47.2045L39.0688 47.2967L39.0704 47.2988L39.1884 47.2045ZM40.4689 47.2045L40.351 47.1101L40.3493 47.1122L40.4689 47.2045ZM40.6944 43.2582V43.1071H40.5434V43.2582H40.6944ZM42.5629 43.2582H42.7139V43.1071H42.5629V43.2582ZM44.7388 48.6541L44.6683 48.7877L44.6695 48.7883L44.7388 48.6541ZM43.6113 47.6072L43.4815 47.6844L43.4826 47.6862L43.6113 47.6072ZM43.6113 44.5548L43.4822 44.4764L43.4819 44.4769L43.6113 44.5548ZM44.7388 43.5078L44.8082 43.642L44.8093 43.6414L44.7388 43.5078ZM47.8153 43.4193L47.7533 43.557L47.7533 43.557L47.8153 43.4193ZM48.8784 44.2568L48.979 44.3695L49.0834 44.2763L48.9984 44.1651L48.8784 44.2568ZM47.6784 45.328L47.56 45.4218L47.6595 45.5473L47.779 45.4406L47.6784 45.328ZM45.4878 45.0541L45.5969 45.1586L45.598 45.1574L45.4878 45.0541ZM45.4878 47.1078L45.3776 47.2111L45.3787 47.2123L45.4878 47.1078ZM47.6784 46.826L47.779 46.7133L47.6595 46.6066L47.56 46.7321L47.6784 46.826ZM48.8784 47.8971L48.9984 47.9888L49.0834 47.8776L48.979 47.7844L48.8784 47.8971ZM47.8153 48.7347L47.8773 48.8724L47.8773 48.8724L47.8153 48.7347ZM50.6139 48.6541L50.5434 48.7877L50.5446 48.7883L50.6139 48.6541ZM49.4864 47.6072L49.3566 47.6844L49.3577 47.6862L49.4864 47.6072ZM49.4864 44.5548L49.3573 44.4764L49.357 44.4769L49.4864 44.5548ZM50.6139 43.5078L50.6833 43.642L50.6844 43.6414L50.6139 43.5078ZM53.6904 43.4193L53.6284 43.557L53.6284 43.557L53.6904 43.4193ZM54.7535 44.2568L54.8541 44.3695L54.9585 44.2763L54.8735 44.1651L54.7535 44.2568ZM53.5535 45.328L53.4351 45.4218L53.5346 45.5473L53.6541 45.4406L53.5535 45.328ZM51.3629 45.0541L51.472 45.1586L51.4731 45.1574L51.3629 45.0541ZM51.3629 47.1078L51.2527 47.2111L51.2538 47.2123L51.3629 47.1078ZM53.5535 46.826L53.6541 46.7133L53.5346 46.6066L53.4351 46.7321L53.5535 46.826ZM54.7535 47.8971L54.8735 47.9888L54.9585 47.8776L54.8541 47.7844L54.7535 47.8971ZM53.6904 48.7347L53.7524 48.8724L53.7524 48.8724L53.6904 48.7347ZM57.2029 43.2582H57.354V43.1071H57.2029V43.2582ZM55.3023 43.2582V43.1071H55.1512V43.2582H55.3023ZM57.2029 48.8958V49.0468H57.354V48.8958H57.2029ZM55.3023 48.8958H55.1512V49.0468H55.3023V48.8958ZM59.4387 48.6461L59.3688 48.78L59.3688 48.78L59.4387 48.6461ZM58.3032 47.5991L58.1741 47.6775L58.1745 47.6782L58.3032 47.5991ZM58.3032 44.5629L58.4318 44.6419L58.4323 44.6413L58.3032 44.5629ZM59.4387 43.5078L59.3688 43.374L59.3688 43.374L59.4387 43.5078ZM62.7085 43.5078L62.7784 43.374L62.7784 43.374L62.7085 43.5078ZM63.8441 44.5629L63.715 44.6413L63.7154 44.6419L63.8441 44.5629ZM63.8441 47.5991L63.9728 47.6782L63.9732 47.6775L63.8441 47.5991ZM62.7085 48.6461L62.7784 48.78L62.7784 48.78L62.7085 48.6461ZM61.7099 47.3172L61.7876 47.4467L61.7886 47.4461L61.7099 47.3172ZM62.1689 46.826L62.3019 46.8976L62.3026 46.8962L62.1689 46.826ZM62.1689 45.336L62.0352 45.4062L62.0359 45.4076L62.1689 45.336ZM61.7099 44.8448L61.6294 44.9727L61.6338 44.9752L61.7099 44.8448ZM60.4293 44.8448L60.507 44.9743L60.5081 44.9736L60.4293 44.8448ZM59.9783 45.336L60.1113 45.4076L60.112 45.4062L59.9783 45.336ZM59.9783 46.826L59.8446 46.8962L59.8453 46.8976L59.9783 46.826ZM60.4293 47.3172L60.3489 47.4452L60.3532 47.4477L60.4293 47.3172ZM63.0226 41.5105L63.1178 41.6278L63.4481 41.3595H63.0226V41.5105ZM61.2911 41.5105V41.3595H61.2199L61.1746 41.4144L61.2911 41.5105ZM61.436 42.7991V42.9502H61.4896L61.5312 42.9164L61.436 42.7991ZM60.228 42.7991L60.1115 42.703L59.9076 42.9502H60.228V42.7991ZM68.9393 48.8958L68.8234 48.9927L68.8687 49.0468H68.9393V48.8958ZM70.5017 48.8958V49.0468H70.6527V48.8958H70.5017ZM66.797 46.3347L66.9129 46.2378L66.646 45.9187V46.3347H66.797ZM66.797 48.8958V49.0468H66.948V48.8958H66.797ZM64.9447 48.8958H64.7936V49.0468H64.9447V48.8958ZM64.9447 43.2582V43.1071H64.7936V43.2582H64.9447ZM66.5071 43.2582L66.6229 43.1613L66.5776 43.1071H66.5071V43.2582ZM68.6494 45.8192L68.5335 45.9162L68.8004 46.2352V45.8192H68.6494ZM68.6494 43.2582V43.1071H68.4983V43.2582H68.6494ZM70.5017 43.2582H70.6527V43.1071H70.5017V43.2582ZM2.29175 40.3499L2.25122 40.4954L2.2534 40.496L2.29175 40.3499ZM5.20248 40.2638L5.14059 40.126L5.13984 40.1263L5.20248 40.2638ZM6.08948 39.5576L5.96419 39.4733L5.96382 39.4738L6.08948 39.5576ZM6.20144 37.8008L6.07002 37.8754L6.07256 37.8796L6.20144 37.8008ZM5.71918 37.2927L5.63622 37.419L5.63881 37.4206L5.71918 37.2927ZM5.04747 36.9827L4.99969 37.1261L5.00377 37.1273L5.04747 36.9827ZM4.31548 36.7847L4.28384 36.9323L4.28454 36.9325L4.31548 36.7847ZM3.64378 36.6383L3.60614 36.7846L3.61101 36.7857L3.64378 36.6383ZM3.15291 36.4488L3.06901 36.5747L3.07608 36.5788L3.15291 36.4488ZM3.37682 35.6651L3.42288 35.8091L3.42797 35.8072L3.37682 35.6651ZM4.76329 35.7082L4.72179 35.8534L4.72456 35.8542L4.76329 35.7082ZM5.61584 36.0527L5.54408 36.1856L5.69124 36.265L5.75534 36.1105L5.61584 36.0527ZM6.14115 34.7868L6.28065 34.8446L6.33147 34.7222L6.21663 34.6559L6.14115 34.7868ZM5.11637 34.3992L5.08078 34.546L5.08337 34.5466L5.11637 34.3992ZM2.47259 34.5284L2.4107 34.3906L2.4107 34.3906L2.47259 34.5284ZM1.57698 35.2346L1.45244 35.1491L1.45131 35.1508L1.57698 35.2346ZM1.47364 37.0172L1.34381 37.0944L1.34477 37.0959L1.47364 37.0172ZM1.9645 37.5253L1.88154 37.6515L1.88413 37.6531L1.9645 37.5253ZM2.6276 37.8353L2.57984 37.9786L2.58084 37.9789L2.6276 37.8353ZM3.35959 38.0333L3.32795 38.181L3.32865 38.1812L3.35959 38.0333ZM4.0313 38.1884L4.06891 38.0421L4.06891 38.0421L4.0313 38.1884ZM4.60828 38.972L4.4973 38.8696L4.49695 38.87L4.60828 38.972ZM4.29826 39.1442L4.33901 39.2898L4.34429 39.2881L4.29826 39.1442ZM2.67066 39.0409L2.6236 39.1844L2.62641 39.1853L2.67066 39.0409ZM1.7406 38.6103L1.82186 38.483L1.67398 38.3886L1.60262 38.5489L1.7406 38.6103ZM1.18084 39.8676L1.04287 39.8062L0.991521 39.9215L1.09592 39.9925L1.18084 39.8676ZM8.21192 40.4102H8.06089V40.5612H8.21192V40.4102ZM8.21192 34.382V34.231H8.06089V34.382H8.21192ZM9.91703 40.4102V40.5612H10.0681V40.4102H9.91703ZM9.91703 34.382H10.0681V34.231H9.91703V34.382ZM12.1635 40.4102H12.0125V40.5612H12.1635V40.4102ZM12.1635 34.382V34.231H12.0125V34.382H12.1635ZM16.7449 40.4102V40.5612H16.896V40.4102H16.7449ZM16.7449 39.0581H16.896V38.9071H16.7449V39.0581ZM13.8686 39.0581H13.7176V39.2092H13.8686V39.0581ZM13.8686 34.382H14.0197V34.231H13.8686V34.382ZM19.9009 40.4102L19.762 40.4695L19.8012 40.5612H19.9009V40.4102ZM17.326 34.382V34.231H17.0973L17.1871 34.4413L17.326 34.382ZM21.5802 40.4102V40.5612H21.6797L21.719 40.4697L21.5802 40.4102ZM24.1637 34.382L24.3025 34.4415L24.3927 34.231H24.1637V34.382ZM22.4758 34.382V34.231H22.3759L22.3368 34.3228L22.4758 34.382ZM20.8029 38.3113L20.6634 38.3693L20.8012 38.7008L20.9418 38.3705L20.8029 38.3113ZM19.1689 34.382L19.3084 34.324L19.2697 34.231H19.1689V34.382ZM27.2378 37.9903V37.8393H27.0868V37.9903H27.2378ZM27.2378 39.0926H27.0868V39.2436H27.2378V39.0926ZM30.3897 39.0926H30.5407V38.9415H30.3897V39.0926ZM30.3897 40.4102V40.5612H30.5407V40.4102H30.3897ZM25.5499 40.4102H25.3989V40.5612H25.5499V40.4102ZM25.5499 34.382V34.231H25.3989V34.382H25.5499ZM30.2777 34.382H30.4288V34.231H30.2777V34.382ZM30.2777 35.6996V35.8506H30.4288V35.6996H30.2777ZM27.2378 35.6996V35.5486H27.0868V35.6996H27.2378ZM27.2378 36.7158H27.0868V36.8668H27.2378V36.7158ZM29.916 36.7158H30.0671V36.5647H29.916V36.7158ZM29.916 37.9903V38.1413H30.0671V37.9903H29.916ZM32.3693 40.4102H32.2182V40.5612H32.3693V40.4102ZM32.3693 34.382V34.231H32.2182V34.382H32.3693ZM34.0744 40.4102V40.5612H34.2254V40.4102H34.0744ZM34.0744 38.8084V38.6574H33.9233V38.8084H34.0744ZM35.0051 38.8084L35.1299 38.7233L35.0849 38.6574H35.0051V38.8084ZM36.0981 40.4102L35.9734 40.4953L36.0183 40.5612H36.0981V40.4102ZM37.9238 40.4102V40.5612H38.2106L38.0483 40.3247L37.9238 40.4102ZM36.6229 38.5145L36.5574 38.3784L36.3987 38.4548L36.4983 38.6L36.6229 38.5145ZM37.476 37.7922L37.6017 37.876L37.6023 37.875L37.476 37.7922ZM37.476 35.424L37.349 35.5058L37.3496 35.5068L37.476 35.424ZM36.5459 34.649L36.484 34.7867L36.4848 34.7871L36.5459 34.649ZM34.0744 37.4908H33.9233V37.6418H34.0744V37.4908ZM35.8139 37.2583L35.7147 37.1444L35.7129 37.146L35.8139 37.2583ZM35.8139 35.9579L35.7129 36.0702L35.7147 36.0718L35.8139 35.9579ZM34.0744 35.7254V35.5744H33.9233V35.7254H34.0744ZM44.9961 40.3068L44.9417 40.4478L44.9442 40.4486L44.9961 40.3068ZM47.8121 40.2379L47.8738 40.3758L47.8746 40.3754L47.8121 40.2379ZM48.9144 39.394L49.0318 39.489L49.1217 39.3779L49.0157 39.282L48.9144 39.394ZM47.8293 38.4123L47.9307 38.3003L47.8152 38.1957L47.7143 38.3144L47.8293 38.4123ZM47.1835 38.9376L47.1146 38.8031L47.1133 38.8038L47.1835 38.9376ZM45.1942 38.6534L45.0833 38.7561L45.0874 38.7602L45.1942 38.6534ZM44.8497 38.1022L44.7084 38.1557L44.7097 38.159L44.8497 38.1022ZM44.8497 36.6899L44.7097 36.6332L44.7084 36.6365L44.8497 36.6899ZM45.1942 36.1474L45.0854 36.0426L45.0853 36.0427L45.1942 36.1474ZM47.1835 35.8546L47.1133 35.9883L47.1146 35.989L47.1835 35.8546ZM47.8293 36.3799L47.7143 36.4777L47.8152 36.5964L47.9307 36.4919L47.8293 36.3799ZM48.9144 35.3982L49.0157 35.5102L49.1209 35.415L49.0325 35.3041L48.9144 35.3982ZM47.8121 34.5542L47.7504 34.6921L47.7511 34.6924L47.8121 34.5542ZM44.9961 34.494L45.0487 34.6355L45.0498 34.6351L44.9961 34.494ZM43.9455 35.1398L43.8419 35.0299L43.8408 35.0309L43.9455 35.1398ZM43.2566 36.1388L43.3948 36.1995L43.3952 36.1988L43.2566 36.1388ZM43.2566 38.662L43.1179 38.722L43.1183 38.7227L43.2566 38.662ZM43.9455 39.6523L43.8408 39.7612L43.8419 39.7623L43.9455 39.6523ZM50.708 40.4102H50.557V40.5612H50.708V40.4102ZM50.708 34.382V34.231H50.557V34.382H50.708ZM55.2894 40.4102V40.5612H55.4405V40.4102H55.2894ZM55.2894 39.0581H55.4405V38.9071H55.2894V39.0581ZM52.4132 39.0581H52.2621V39.2092H52.4132V39.0581ZM52.4132 34.382H52.5642V34.231H52.4132V34.382ZM56.3331 40.4102L56.1949 40.3492L56.1013 40.5612H56.3331V40.4102ZM58.9941 34.382V34.231H58.8956L58.8559 34.321L58.9941 34.382ZM58.0726 40.4102V40.5612H58.1748L58.2128 40.4664L58.0726 40.4102ZM58.5427 39.239V39.0879H58.4405L58.4025 39.1827L58.5427 39.239ZM61.0989 39.239L61.2391 39.1827L61.2011 39.0879H61.0989V39.239ZM61.569 40.4102L61.4288 40.4664L61.4668 40.5612H61.569V40.4102ZM63.343 40.4102V40.5612H63.575L63.4811 40.349L63.343 40.4102ZM60.6733 34.382L60.8114 34.3208L60.7716 34.231H60.6733V34.382ZM59.0472 37.9817L58.9071 37.9254L58.8239 38.1327H59.0472V37.9817ZM60.5943 37.9817V38.1327H60.8177L60.7345 37.9254L60.5943 37.9817ZM59.8208 36.0542L59.961 35.9979L59.8208 35.6487L59.6806 35.9979L59.8208 36.0542ZM65.4311 39.7987L65.5367 39.6907L65.5367 39.6907L65.4311 39.7987ZM69.5992 39.7987L69.7047 39.9068L69.7047 39.9068L69.5992 39.7987ZM70.3484 34.382H70.4994V34.231H70.3484V34.382ZM68.6691 34.382V34.231H68.5181V34.382H68.6691ZM66.6884 38.7826L66.576 38.8834L66.5775 38.885L66.6884 38.7826ZM66.387 34.382H66.5381V34.231H66.387V34.382ZM64.6819 34.382V34.231H64.5309V34.382H64.6819ZM67.7732 16.6181L33.9698 0.863105L33.8422 1.13689L67.6456 16.8919L67.7732 16.6181ZM67.2566 18.0841L67.8463 16.8188L67.5725 16.6912L66.9828 17.9565L67.2566 18.0841ZM64.7539 17.0843L67.0559 18.1572L67.1835 17.8834L64.8815 16.8105L64.7539 17.0843ZM64.9687 29.7179V16.9474H64.6666V29.7179H64.9687ZM64.9687 30.5157V29.7179H64.6666V30.5157H64.9687ZM63.4217 30.6667L64.8177 30.6667L64.8177 30.3646L63.4217 30.3646L63.4217 30.6667ZM60.1311 30.6667H63.4217V30.3646H60.1311V30.6667ZM59.3333 30.6667H60.1311V30.3646H59.3333V30.6667ZM56.4416 30.6667H59.3333V30.3646H56.4416V30.6667ZM55.6439 30.6667H56.4416V30.3646H55.6439V30.6667ZM53.151 30.6667H55.6439V30.3646H53.151V30.6667ZM52.3533 30.6667H53.151V30.3646H52.3533V30.6667ZM47.6667 30.6667H52.3533V30.3646H47.6667V30.6667ZM46.8689 30.6667H47.6667V30.3646H46.8689V30.6667ZM43.7778 30.6667H46.8689V30.3646H43.7778V30.6667ZM42.9801 30.6667H43.7778V30.3646H42.9801V30.6667ZM35.302 30.6667H42.9801V30.3646H35.302V30.6667ZM34.5043 30.6667H35.302V30.3646H34.5043V30.6667ZM27.4245 30.6667H34.5043V30.3646H27.4245V30.6667ZM26.6268 30.6667H27.4245V30.3646H26.6268V30.6667ZM26.0285 30.6667H26.6268V30.3646H26.0285V30.6667ZM20.3447 30.6667H26.0285V30.3646H20.3447V30.6667ZM19.7464 30.6667H20.3447V30.3646H19.7464V30.6667ZM18.9487 30.6667H19.7464V30.3646H18.9487V30.6667ZM15.7578 30.6667H18.9487V30.3646H15.7578V30.6667ZM14.9601 30.6667H15.7578V30.3646H14.9601V30.6667ZM12.2678 30.6667H14.9601V30.3646H12.2678V30.6667ZM11.4701 30.6667H12.2678V30.3646H11.4701V30.6667ZM8.67806 30.6667H11.4701V30.3646H8.67806V30.6667ZM7.28205 30.6667H8.67806V30.3646H7.28205V30.6667ZM7.13102 16.2038L7.13102 30.5157L7.43308 30.5157L7.43308 16.2038L7.13102 16.2038ZM6.35361 16.8477L7.35076 16.3383L7.21334 16.0693L6.21619 16.5787L6.35361 16.8477ZM5.51529 15.5387L6.1504 16.7819L6.4194 16.6445L5.78428 15.4013L5.51529 15.5387ZM33.8004 0.918629L5.58107 15.3355L5.7185 15.6045L33.9379 1.18762L33.8004 0.918629ZM34.01 0.996767L34.0037 0.984416L33.7347 1.12184L33.741 1.13419L34.01 0.996767ZM33.7691 0.936196L33.7386 1.00167L34.0124 1.12928L34.0429 1.0638L33.7691 0.936196ZM8.8291 29.7179L8.8291 15.4906L8.52703 15.4906L8.52703 29.7179L8.8291 29.7179ZM11.4701 29.5669H8.67806V29.869H11.4701V29.5669ZM11.3191 14.0641L11.3191 29.7179L11.6211 29.7179L11.6211 14.0641L11.3191 14.0641ZM8.74677 15.6251L11.5388 14.1986L11.4014 13.9297L8.60935 15.3561L8.74677 15.6251ZM12.4188 29.7179L12.4188 13.6566L12.1168 13.6566L12.1168 29.7179L12.4188 29.7179ZM14.9601 29.5669H12.2678V29.869H14.9601V29.5669ZM14.8091 12.2811L14.8091 29.7179L15.1111 29.7179L15.1111 12.2811L14.8091 12.2811ZM12.3365 13.7911L15.0288 12.4156L14.8914 12.1466L12.1991 13.5221L12.3365 13.7911ZM15.9089 29.7179L15.9089 11.8736L15.6068 11.8736L15.6068 29.7179L15.9089 29.7179ZM18.9487 29.5669H15.7578V29.869H18.9487V29.5669ZM18.7977 21.2422L18.7977 29.7179L19.0998 29.7179L19.0998 21.2422L18.7977 21.2422ZM18.7977 10.2434L18.7977 21.2422L19.0998 21.2422L19.0998 10.2434L18.7977 10.2434ZM15.8265 12.0081L19.0174 10.3779L18.88 10.1089L15.6891 11.7391L15.8265 12.0081ZM19.8975 20.5417V9.83587H19.5954V20.5417H19.8975ZM26.572 17.7203L19.6916 20.4009L19.8013 20.6824L26.6816 18.0017L26.572 17.7203ZM26.4757 6.3208L26.4757 17.861L26.7778 17.861L26.7778 6.3208L26.4757 6.3208ZM19.8152 9.97037L26.6955 6.4553L26.5581 6.1863L19.6777 9.70138L19.8152 9.97037ZM27.5755 19.0484V5.91326H27.2735V19.0484H27.5755ZM27.5755 29.7179V19.0484H27.2735V29.7179H27.5755ZM34.5043 29.5669H27.4245V29.869H34.5043V29.5669ZM34.3532 2.81904V29.7179H34.6553V2.81904H34.3532ZM33.9054 2.70655L34.4405 2.95593L34.5681 2.68215L34.033 2.43276L33.9054 2.70655ZM27.4932 6.04775L34.0379 2.70415L33.9005 2.43516L27.3558 5.77876L27.4932 6.04775ZM35.453 29.7179L35.453 3.19084L35.151 3.19084L35.151 29.7179L35.453 29.7179ZM42.9801 29.5669H35.302V29.869H42.9801V29.5669ZM42.829 6.76941V29.7179H43.1311V6.76941H42.829ZM35.2382 3.32773L42.9163 6.9063L43.0439 6.63251L35.3658 3.05394L35.2382 3.32773ZM43.9288 29.7179L43.9288 7.1412L43.6267 7.1412L43.6267 29.7179L43.9288 29.7179ZM46.8689 29.5669H43.7778V29.869H46.8689V29.5669ZM46.7179 8.58193V29.7179H47.02V8.58193H46.7179ZM43.714 7.2781L46.8051 8.71882L46.9327 8.44503L43.8416 7.00431L43.714 7.2781ZM47.8177 29.7179L47.8177 8.95373L47.5156 8.95373L47.5156 29.7179L47.8177 29.7179ZM52.3533 29.5669H47.6667V29.869H52.3533V29.5669ZM52.2022 11.138V29.7179H52.5043V11.138H52.2022ZM47.6029 9.09062L52.2895 11.2749L52.4171 11.0012L47.7305 8.81683L47.6029 9.09062ZM53.302 29.7179L53.302 11.5098L53 11.5098L53 29.7179L53.302 29.7179ZM55.6439 29.5669H53.151V29.869H55.6439V29.5669ZM55.4928 12.6717V29.7179H55.7949V12.6717H55.4928ZM53.0872 11.6467L55.5801 12.8086L55.7077 12.5348L53.2148 11.3729L53.0872 11.6467ZM56.5926 29.7179V13.0435H56.2906V29.7179H56.5926ZM59.3333 29.5669H56.4416V29.869H59.3333V29.5669ZM59.1823 14.3913V29.7179H59.4844V14.3913H59.1823ZM56.3778 13.1804L59.2695 14.5282L59.3971 14.2544L56.5054 12.9066L56.3778 13.1804ZM60.2821 29.7179V14.7631H59.98V29.7179H60.2821ZM63.4217 29.5669H60.1311V29.869H63.4217V29.5669ZM63.2706 16.2968V29.7179H63.5727V16.2968H63.2706ZM60.0673 14.9L63.3579 16.4337L63.4855 16.1599L60.1949 14.6262L60.0673 14.9ZM20.3996 21.9475L26.0833 19.7331L25.9737 19.4516L20.2899 21.6661L20.3996 21.9475ZM20.4958 29.7179V21.8068H20.1937V29.7179H20.4958ZM26.0285 29.5669H20.3447V29.869H26.0285V29.5669ZM25.8775 19.5923V29.7179H26.1795V19.5923H25.8775ZM0.848967 11.2707V31.5128H1.15103V11.2707H0.848967ZM2.39601 11.1196H1V11.4217H2.39601V11.1196ZM2.54705 31.5128L2.54704 11.2707L2.24498 11.2707L2.24498 31.5128L2.54705 31.5128ZM69.604 31.3618H2.39601V31.6639H69.604V31.3618ZM69.453 7.48148V31.5128H69.755V7.48148H69.453ZM53.151 7.63251H69.604V7.33045H53.151V7.63251ZM53 6.08547V7.48148H53.302V6.08547H53ZM71 5.93444H53.151V6.2365H71V5.93444ZM71.151 6.78348V6.08547H70.849V6.78348H71.151ZM71.151 7.48148V6.78348H70.849V7.48148H71.151ZM71.151 31.5128V7.48148H70.849V31.5128H71.151ZM71.151 32.9088V31.5128H70.849V32.9088H71.151ZM69.604 33.0599H71V32.7578H69.604V33.0599ZM2.39601 33.0599H69.604V32.7578H2.39601V33.0599ZM1 33.0599H2.39601V32.7578H1V33.0599ZM0.848967 31.5128V32.9088H1.15103V31.5128H0.848967ZM2.69441 48.7883C3.19593 49.0475 3.75703 49.1756 4.37449 49.1756V48.8736C3.8 48.8736 3.28728 48.7547 2.8331 48.52L2.69441 48.7883ZM1.50756 47.6862C1.79602 48.1557 2.19229 48.5232 2.69323 48.7877L2.83428 48.5206C2.37951 48.2804 2.02411 47.9499 1.76492 47.5281L1.50756 47.6862ZM1.08252 46.077C1.08252 46.6709 1.22293 47.2081 1.50646 47.6844L1.76602 47.5299C1.51264 47.1042 1.38459 46.6213 1.38459 46.077H1.08252ZM1.50687 44.4769C1.22293 44.9482 1.08252 45.483 1.08252 46.077H1.38459C1.38459 45.5326 1.51264 45.0527 1.76561 44.6328L1.50687 44.4769ZM2.69441 43.3737C2.19239 43.6331 1.79567 44.0012 1.50714 44.4764L1.76534 44.6332C2.02446 44.2064 2.37941 43.8765 2.8331 43.642L2.69441 43.3737ZM4.37449 42.9783C3.75651 42.9783 3.19498 43.1093 2.69323 43.3743L2.83428 43.6414C3.28823 43.4017 3.80052 43.2804 4.37449 43.2804V42.9783ZM5.90224 43.2815C5.4503 43.0782 4.94006 42.9783 4.37449 42.9783V43.2804C4.90422 43.2804 5.37116 43.3738 5.77828 43.557L5.90224 43.2815ZM7.02332 44.1651C6.72852 43.7796 6.35402 43.4848 5.90224 43.2815L5.77828 43.557C6.18555 43.7403 6.51978 44.0039 6.78337 44.3486L7.02332 44.1651ZM5.80392 45.4406L7.00392 44.3695L6.80277 44.1442L5.60277 45.2153L5.80392 45.4406ZM4.47113 44.8186C4.88857 44.8186 5.2586 45.01 5.58499 45.4218L5.8217 45.2342C5.45011 44.7654 4.99866 44.5165 4.47113 44.5165V44.8186ZM3.62293 45.1574C3.83229 44.9341 4.10982 44.8186 4.47113 44.8186V44.5165C4.03781 44.5165 3.67643 44.6587 3.40256 44.9509L3.62293 45.1574ZM3.30136 46.077C3.30136 45.6769 3.41302 45.3767 3.62184 45.1586L3.40365 44.9497C3.12925 45.2363 2.9993 45.6179 2.9993 46.077H3.30136ZM3.62293 47.0045C3.41299 46.7806 3.30136 46.4769 3.30136 46.077H2.9993C2.9993 46.5361 3.12928 46.9196 3.40256 47.2111L3.62293 47.0045ZM4.47113 47.3353C4.10882 47.3353 3.83094 47.2218 3.62184 47.0034L3.40365 47.2123C3.67777 47.4986 4.03882 47.6374 4.47113 47.6374V47.3353ZM5.58499 46.7321C5.2586 47.1439 4.88857 47.3353 4.47113 47.3353V47.6374C4.99866 47.6374 5.45011 47.3886 5.8217 46.9198L5.58499 46.7321ZM7.00392 47.7844L5.80392 46.7133L5.60277 46.9386L6.80277 48.0098L7.00392 47.7844ZM5.90224 48.8724C6.35402 48.6691 6.72852 48.3743 7.02332 47.9888L6.78337 47.8053C6.51978 48.15 6.18555 48.4137 5.77828 48.5969L5.90224 48.8724ZM4.37449 49.1756C4.94006 49.1756 5.4503 49.0758 5.90224 48.8724L5.77828 48.5969C5.37115 48.7802 4.90422 48.8736 4.37449 48.8736V49.1756ZM8.58504 48.78C9.09219 49.0448 9.66159 49.1756 10.2899 49.1756V48.8736C9.7047 48.8736 9.18416 48.7521 8.72487 48.5122L8.58504 48.78ZM7.3907 47.6782C7.67943 48.1481 8.07871 48.5155 8.58504 48.78L8.72487 48.5122C8.26476 48.2719 7.907 47.9414 7.64807 47.52L7.3907 47.6782ZM6.95762 46.077C6.95762 46.6664 7.10113 47.2012 7.39029 47.6775L7.64849 47.5207C7.39 47.095 7.25968 46.6151 7.25968 46.077H6.95762ZM7.3907 44.4838C7.10113 44.9551 6.95762 45.4876 6.95762 46.077H7.25968C7.25968 45.5389 7.39 45.0619 7.64807 44.6419L7.3907 44.4838ZM8.58504 43.374C8.07825 43.6386 7.6789 44.0091 7.39029 44.4845L7.64849 44.6413C7.90752 44.2146 8.26522 43.8818 8.72487 43.6417L8.58504 43.374ZM10.2899 42.9783C9.66159 42.9783 9.09219 43.1091 8.58504 43.374L8.72487 43.6417C9.18416 43.4019 9.70469 43.2804 10.2899 43.2804V42.9783ZM11.9947 43.374C11.4875 43.1091 10.9181 42.9783 10.2899 42.9783V43.2804C10.875 43.2804 11.3955 43.4019 11.8548 43.6417L11.9947 43.374ZM13.1894 44.4845C12.9008 44.0091 12.5015 43.6386 11.9947 43.374L11.8548 43.6417C12.3145 43.8818 12.6722 44.2146 12.9312 44.6413L13.1894 44.4845ZM13.6221 46.077C13.6221 45.4876 13.4786 44.9551 13.189 44.4838L12.9316 44.6419C13.1897 45.0619 13.32 45.5389 13.32 46.077H13.6221ZM13.1894 47.6775C13.4786 47.2012 13.6221 46.6664 13.6221 46.077H13.32C13.32 46.6151 13.1897 47.095 12.9312 47.5207L13.1894 47.6775ZM11.9947 48.78C12.501 48.5155 12.9003 48.1481 13.189 47.6782L12.9316 47.52C12.6727 47.9414 12.3149 48.2719 11.8548 48.5122L11.9947 48.78ZM10.2899 49.1756C10.9181 49.1756 11.4875 49.0448 11.9947 48.78L11.8548 48.5122C11.3955 48.7521 10.875 48.8736 10.2899 48.8736V49.1756ZM10.8484 47.1877C10.6858 47.2853 10.5009 47.3353 10.2899 47.3353V47.6374C10.5513 47.6374 10.7906 47.5747 11.0038 47.4467L10.8484 47.1877ZM11.2522 46.7544C11.1514 46.9414 11.0166 47.0849 10.8473 47.1884L11.0048 47.4461C11.2221 47.3133 11.3934 47.1293 11.5181 46.8976L11.2522 46.7544ZM11.4032 46.077C11.4032 46.3413 11.351 46.5661 11.2514 46.7558L11.5189 46.8962C11.6448 46.6563 11.7053 46.3818 11.7053 46.077H11.4032ZM11.2522 45.4076C11.351 45.5911 11.4032 45.8125 11.4032 46.077H11.7053C11.7053 45.7723 11.6449 45.4998 11.5181 45.2644L11.2522 45.4076ZM10.85 44.9752C11.0167 45.0725 11.1507 45.2144 11.2514 45.4062L11.5189 45.2658C11.3941 45.0282 11.222 44.8425 11.0022 44.7143L10.85 44.9752ZM10.2899 44.8186C10.4996 44.8186 10.6834 44.8706 10.8457 44.9726L11.0065 44.7169C10.7929 44.5826 10.5526 44.5165 10.2899 44.5165V44.8186ZM9.72431 44.9736C9.89284 44.8706 10.0802 44.8186 10.2899 44.8186V44.5165C10.0271 44.5165 9.78485 44.5826 9.5668 44.7159L9.72431 44.9736ZM9.32828 45.4062C9.42957 45.2133 9.56159 45.0713 9.72326 44.9743L9.56785 44.7152C9.35369 44.8437 9.18504 45.0292 9.06083 45.2658L9.32828 45.4062ZM9.17646 46.077C9.17646 45.8125 9.22875 45.5911 9.32753 45.4076L9.06157 45.2644C8.93485 45.4998 8.87439 45.7723 8.87439 46.077H9.17646ZM9.32828 46.7558C9.22871 46.5661 9.17646 46.3413 9.17646 46.077H8.87439C8.87439 46.3818 8.93489 46.6563 9.06083 46.8962L9.32828 46.7558ZM9.72593 47.1894C9.56169 47.0861 9.42882 46.9425 9.32753 46.7544L9.06157 46.8976C9.18579 47.1282 9.35358 47.3121 9.56518 47.4451L9.72593 47.1894ZM10.2899 47.3353C10.0788 47.3353 9.89055 47.2853 9.72166 47.1868L9.56946 47.4477C9.78714 47.5747 10.0284 47.6374 10.2899 47.6374V47.3353ZM18.1555 49.0468H19.7179V48.7447H18.1555V49.0468ZM15.8974 46.4316L18.0397 48.9927L18.2714 48.7988L16.1291 46.2378L15.8974 46.4316ZM16.1643 48.8958V46.3347H15.8622V48.8958H16.1643ZM14.1609 49.0468H16.0132V48.7447H14.1609V49.0468ZM14.0099 43.2582V48.8958H14.3119V43.2582H14.0099ZM15.7233 43.1071H14.1609V43.4092H15.7233V43.1071ZM17.9814 45.7223L15.8392 43.1613L15.6075 43.3551L17.7497 45.9162L17.9814 45.7223ZM17.7146 43.2582V45.8192H18.0166V43.2582H17.7146ZM19.7179 43.1071H17.8656V43.4092H19.7179V43.1071ZM19.869 48.8958V43.2582H19.5669V48.8958H19.869ZM21.3329 49.0188C21.7898 49.1234 22.2575 49.1756 22.7357 49.1756V48.8736C22.2797 48.8736 21.8347 48.8238 21.4003 48.7244L21.3329 49.0188ZM20.1995 48.573C20.5015 48.761 20.8801 48.9084 21.3308 49.0183L21.4024 48.7249C20.9726 48.62 20.6263 48.4829 20.3592 48.3165L20.1995 48.573ZM20.7533 46.9985L20.1412 48.3837L20.4175 48.5058L21.0296 47.1206L20.7533 46.9985ZM21.8356 47.293C21.5131 47.1994 21.2239 47.0778 20.9672 46.9289L20.8157 47.1902C21.0959 47.3527 21.408 47.4834 21.7513 47.5831L21.8356 47.293ZM22.7518 47.4239C22.4609 47.4239 22.1549 47.3805 21.8334 47.2924L21.7535 47.5837C22.0978 47.6781 22.4307 47.726 22.7518 47.726V47.4239ZM23.2561 47.3636C23.1737 47.399 23.0126 47.4239 22.7518 47.4239V47.726C23.0173 47.726 23.232 47.7026 23.3751 47.6413L23.2561 47.3636ZM23.3337 47.2689C23.3337 47.2902 23.3285 47.3037 23.3201 47.3152C23.3105 47.3284 23.2908 47.347 23.2507 47.3661L23.3805 47.6388C23.4531 47.6043 23.518 47.557 23.5648 47.4924C23.6128 47.4261 23.6358 47.3497 23.6358 47.2689H23.3337ZM23.204 47.1437C23.2645 47.1675 23.2968 47.1923 23.3132 47.2116C23.3272 47.2281 23.3337 47.245 23.3337 47.2689H23.6358C23.6358 47.1747 23.6047 47.0882 23.5435 47.0162C23.4847 46.9469 23.4043 46.8978 23.3145 46.8626L23.204 47.1437ZM22.5039 46.9578C22.8412 47.0274 23.0711 47.0896 23.2022 47.143L23.3162 46.8633C23.1574 46.7986 22.9041 46.7319 22.5649 46.6619L22.5039 46.9578ZM21.397 46.6624C21.6953 46.7673 22.0646 46.8656 22.5034 46.9577L22.5654 46.662C22.1344 46.5716 21.7789 46.4765 21.4973 46.3774L21.397 46.6624ZM20.5783 46.1061C20.8088 46.3596 21.0813 46.5455 21.3947 46.6615L21.4996 46.3783C21.2331 46.2796 21.0009 46.1218 20.8019 45.9029L20.5783 46.1061ZM20.2169 45.03C20.2169 45.465 20.3319 45.8289 20.5772 46.1048L20.803 45.9041C20.6187 45.6969 20.519 45.4111 20.519 45.03H20.2169ZM20.5413 43.9782C20.3253 44.2935 20.2169 44.6454 20.2169 45.03H20.519C20.519 44.7058 20.6093 44.4135 20.7905 44.1489L20.5413 43.9782ZM21.4928 43.24C21.08 43.4153 20.7594 43.6599 20.5413 43.9782L20.7905 44.1489C20.9697 43.8874 21.2398 43.6756 21.6109 43.518L21.4928 43.24ZM22.9935 42.9783C22.4155 42.9783 21.914 43.0635 21.4935 43.2397L21.6102 43.5183C21.9843 43.3616 22.4438 43.2804 22.9935 43.2804V42.9783ZM24.1631 43.111C23.7813 43.0225 23.3913 42.9783 22.9935 42.9783V43.2804C23.3687 43.2804 23.7358 43.322 24.0949 43.4053L24.1631 43.111ZM25.194 43.4892C24.894 43.3193 24.5489 43.1937 24.1607 43.1105L24.0974 43.4059C24.4608 43.4837 24.7761 43.5997 25.0452 43.752L25.194 43.4892ZM24.6873 45.0557L25.2591 43.6785L24.9801 43.5627L24.4083 44.9399L24.6873 45.0557ZM22.9773 44.73C23.4424 44.73 23.9426 44.8614 24.4797 45.1326L24.6159 44.8629C24.047 44.5757 23.5002 44.4279 22.9773 44.4279V44.73ZM22.3955 44.9333C22.3955 44.9018 22.4032 44.8807 22.4146 44.864C22.4269 44.8462 22.4499 44.8246 22.4934 44.8035C22.5847 44.7594 22.7404 44.73 22.9773 44.73V44.4279C22.7257 44.4279 22.515 44.4576 22.3619 44.5316C22.2834 44.5696 22.2147 44.6218 22.1659 44.6926C22.1163 44.7646 22.0934 44.8468 22.0934 44.9333H22.3955ZM22.5189 45.0512C22.4606 45.0275 22.4298 45.0033 22.4143 44.9849C22.4011 44.9693 22.3955 44.9542 22.3955 44.9333H22.0934C22.0934 45.0252 22.1241 45.1094 22.1834 45.1797C22.2404 45.2472 22.3182 45.2956 22.4049 45.3309L22.5189 45.0512ZM23.2074 45.22C22.8754 45.1557 22.6469 45.0985 22.5144 45.0494L22.4095 45.3327C22.5669 45.391 22.8162 45.4519 23.15 45.5165L23.2074 45.22ZM24.3175 45.5082C24.0122 45.3971 23.6413 45.3013 23.2065 45.2198L23.1509 45.5167C23.5752 45.5962 23.9291 45.6883 24.2143 45.7921L24.3175 45.5082ZM25.1428 46.0559C24.9114 45.8014 24.635 45.6178 24.3152 45.5074L24.2166 45.7929C24.4874 45.8864 24.7212 46.0412 24.9193 46.2591L25.1428 46.0559ZM25.5123 47.1239C25.5123 46.6882 25.3941 46.3256 25.1415 46.0545L24.9205 46.2605C25.1083 46.4619 25.2102 46.7436 25.2102 47.1239H25.5123ZM25.1878 48.1758C25.4039 47.8605 25.5123 47.5085 25.5123 47.1239H25.2102C25.2102 47.4481 25.1199 47.7404 24.9387 48.005L25.1878 48.1758ZM24.2292 48.9136C24.6459 48.7334 24.9689 48.4894 25.1871 48.1768L24.9394 48.0039C24.7603 48.2604 24.4873 48.4729 24.1093 48.6363L24.2292 48.9136ZM22.7357 49.1756C23.3135 49.1756 23.8127 49.0905 24.2283 48.914L24.1103 48.6359C23.742 48.7923 23.2854 48.8736 22.7357 48.8736V49.1756ZM25.4213 44.883H27.0723V44.581H25.4213V44.883ZM25.2703 43.2582V44.732H25.5724V43.2582H25.2703ZM30.624 43.1071H25.4213V43.4092H30.624V43.1071ZM30.775 44.732V43.2582H30.473V44.732H30.775ZM28.973 44.883H30.624V44.581H28.973V44.883ZM29.124 48.8958V44.732H28.822V48.8958H29.124ZM27.0723 49.0468H28.973V48.7447H27.0723V49.0468ZM26.9213 44.732V48.8958H27.2234V44.732H26.9213ZM33.0183 47.6293H33.5338V47.3273H33.0183V47.6293ZM33.1694 48.8958V47.4783H32.8673V48.8958H33.1694ZM31.1177 49.0468H33.0183V48.7447H31.1177V49.0468ZM30.9666 43.2582V48.8958H31.2687V43.2582H30.9666ZM33.8317 43.1071H31.1177V43.4092H33.8317V43.1071ZM35.2542 43.3779C34.8444 43.1957 34.3689 43.1071 33.8317 43.1071V43.4092C34.3362 43.4092 34.7681 43.4924 35.1315 43.6539L35.2542 43.3779ZM36.2134 44.1745C35.9865 43.8254 35.6646 43.5603 35.2542 43.3779L35.1315 43.6539C35.4942 43.8151 35.7683 44.0439 35.9601 44.3391L36.2134 44.1745ZM36.5519 45.3843C36.5519 44.9292 36.4406 44.524 36.2134 44.1745L35.9601 44.3391C36.1518 44.634 36.2498 44.9805 36.2498 45.3843H36.5519ZM36.2562 46.5178C36.455 46.1902 36.5519 45.8106 36.5519 45.3843H36.2498C36.2498 45.7635 36.1642 46.0872 35.9979 46.361L36.2562 46.5178ZM35.407 47.2904C35.7728 47.1018 36.0578 46.8445 36.2561 46.5178L35.9979 46.361C35.8312 46.6356 35.59 46.8562 35.2686 47.0219L35.407 47.2904ZM36.6465 48.8108L35.4626 47.0712L35.2129 47.2411L36.3968 48.9807L36.6465 48.8108ZM34.4921 49.0468H36.5217V48.7447H34.4921V49.0468ZM33.4086 47.5629L34.367 48.9803L34.6173 48.8112L33.6589 47.3937L33.4086 47.5629ZM34.1914 45.0148C34.2802 45.0926 34.3331 45.2079 34.3331 45.3843H34.6351C34.6351 45.142 34.5591 44.9352 34.3903 44.7875L34.1914 45.0148ZM33.7109 44.875C33.9485 44.875 34.0985 44.9297 34.1888 45.0125L34.3929 44.7898C34.2254 44.6363 33.9888 44.5729 33.7109 44.5729V44.875ZM33.0183 44.875H33.7109V44.5729H33.0183V44.875ZM33.1694 46.0448V44.7239H32.8673V46.0448H33.1694ZM33.7109 45.8937H33.0183V46.1958H33.7109V45.8937ZM34.1914 45.762C34.101 45.841 33.95 45.8937 33.7109 45.8937V46.1958C33.9874 46.1958 34.2229 46.1358 34.3903 45.9893L34.1914 45.762ZM34.3331 45.3843C34.3331 45.5605 34.2803 45.6804 34.1888 45.7643L34.3929 45.987C34.5591 45.8346 34.6351 45.627 34.6351 45.3843H34.3331ZM37.6901 48.4325C38.2089 48.934 38.9246 49.1756 39.8166 49.1756V48.8736C38.9796 48.8736 38.3477 48.6481 37.9001 48.2153L37.6901 48.4325ZM36.9192 46.3588C36.9192 47.2317 37.1704 47.9301 37.6901 48.4325L37.9001 48.2153C37.4534 47.7835 37.2213 47.1719 37.2213 46.3588H36.9192ZM36.9192 43.2582V46.3588H37.2213V43.2582H36.9192ZM38.9709 43.1071H37.0703V43.4092H38.9709V43.1071ZM39.122 46.3025V43.2582H38.8199V46.3025H39.122ZM39.308 47.1122C39.1937 46.9641 39.122 46.7047 39.122 46.3025H38.8199C38.8199 46.7271 38.8931 47.069 39.0688 47.2967L39.308 47.1122ZM39.8327 47.3353C39.5911 47.3353 39.4232 47.2562 39.3063 47.1101L39.0704 47.2988C39.2542 47.5286 39.5159 47.6374 39.8327 47.6374V47.3353ZM40.3493 47.1122C40.2382 47.2563 40.0743 47.3353 39.8327 47.3353V47.6374C40.1494 47.6374 40.4097 47.5285 40.5885 47.2967L40.3493 47.1122ZM40.5434 46.3025C40.5434 46.7039 40.4692 46.9623 40.351 47.1101L40.5869 47.2988C40.7693 47.0708 40.8455 46.7279 40.8455 46.3025H40.5434ZM40.5434 43.2582V46.3025H40.8455V43.2582H40.5434ZM42.5629 43.1071H40.6944V43.4092H42.5629V43.1071ZM42.7139 46.3588V43.2582H42.4118V46.3588H42.7139ZM41.943 48.4325C42.4628 47.9301 42.7139 47.2317 42.7139 46.3588H42.4118C42.4118 47.1719 42.1798 47.7835 41.7331 48.2153L41.943 48.4325ZM39.8166 49.1756C40.7085 49.1756 41.4242 48.934 41.943 48.4325L41.7331 48.2153C41.2854 48.6481 40.6535 48.8736 39.8166 48.8736V49.1756ZM44.6695 48.7883C45.171 49.0475 45.7321 49.1756 46.3495 49.1756V48.8736C45.7751 48.8736 45.2623 48.7547 44.8082 48.52L44.6695 48.7883ZM43.4826 47.6862C43.7711 48.1557 44.1674 48.5232 44.6683 48.7877L44.8093 48.5206C44.3546 48.2804 43.9992 47.9499 43.74 47.5281L43.4826 47.6862ZM43.0576 46.077C43.0576 46.6709 43.198 47.2081 43.4815 47.6844L43.7411 47.5299C43.4877 47.1042 43.3596 46.6213 43.3596 46.077H43.0576ZM43.4819 44.4769C43.198 44.9482 43.0576 45.483 43.0576 46.077H43.3596C43.3596 45.5326 43.4877 45.0527 43.7407 44.6328L43.4819 44.4769ZM44.6695 43.3737C44.1675 43.6331 43.7707 44.0012 43.4822 44.4764L43.7404 44.6332C43.9995 44.2064 44.3545 43.8765 44.8082 43.642L44.6695 43.3737ZM46.3495 42.9783C45.7316 42.9783 45.17 43.1093 44.6683 43.3743L44.8093 43.6414C45.2633 43.4017 45.7756 43.2804 46.3495 43.2804V42.9783ZM47.8773 43.2815C47.4254 43.0782 46.9151 42.9783 46.3495 42.9783V43.2804C46.8793 43.2804 47.3462 43.3738 47.7533 43.557L47.8773 43.2815ZM48.9984 44.1651C48.7036 43.7796 48.3291 43.4848 47.8773 43.2815L47.7533 43.557C48.1606 43.7403 48.4948 44.0039 48.7584 44.3486L48.9984 44.1651ZM47.779 45.4406L48.979 44.3695L48.7778 44.1442L47.5778 45.2153L47.779 45.4406ZM46.4462 44.8186C46.8636 44.8186 47.2337 45.01 47.56 45.4218L47.7968 45.2342C47.4252 44.7654 46.9737 44.5165 46.4462 44.5165V44.8186ZM45.598 45.1574C45.8073 44.9341 46.0849 44.8186 46.4462 44.8186V44.5165C46.0129 44.5165 45.6515 44.6587 45.3776 44.9509L45.598 45.1574ZM45.2764 46.077C45.2764 45.6769 45.3881 45.3767 45.5969 45.1586L45.3787 44.9497C45.1043 45.2363 44.9744 45.6179 44.9744 46.077H45.2764ZM45.598 47.0045C45.388 46.7806 45.2764 46.4769 45.2764 46.077H44.9744C44.9744 46.5361 45.1043 46.9196 45.3776 47.2111L45.598 47.0045ZM46.4462 47.3353C46.0839 47.3353 45.806 47.2218 45.5969 47.0034L45.3787 47.2123C45.6528 47.4986 46.0139 47.6374 46.4462 47.6374V47.3353ZM47.56 46.7321C47.2337 47.1439 46.8636 47.3353 46.4462 47.3353V47.6374C46.9737 47.6374 47.4252 47.3886 47.7968 46.9198L47.56 46.7321ZM48.979 47.7844L47.779 46.7133L47.5778 46.9386L48.7778 48.0098L48.979 47.7844ZM47.8773 48.8724C48.3291 48.6691 48.7036 48.3743 48.9984 47.9888L48.7584 47.8053C48.4948 48.15 48.1606 48.4137 47.7533 48.597L47.8773 48.8724ZM46.3495 49.1756C46.9151 49.1756 47.4254 49.0758 47.8773 48.8724L47.7533 48.5969C47.3462 48.7802 46.8793 48.8736 46.3495 48.8736V49.1756ZM50.5446 48.7883C51.0461 49.0475 51.6072 49.1756 52.2246 49.1756V48.8736C51.6502 48.8736 51.1374 48.7547 50.6833 48.52L50.5446 48.7883ZM49.3577 47.6862C49.6462 48.1557 50.0424 48.5232 50.5434 48.7877L50.6844 48.5206C50.2297 48.2804 49.8743 47.9499 49.6151 47.5281L49.3577 47.6862ZM48.9327 46.077C48.9327 46.6709 49.0731 47.2081 49.3566 47.6844L49.6162 47.5299C49.3628 47.1042 49.2347 46.6213 49.2347 46.077H48.9327ZM49.357 44.4769C49.0731 44.9482 48.9327 45.483 48.9327 46.077H49.2347C49.2347 45.5326 49.3628 45.0527 49.6158 44.6328L49.357 44.4769ZM50.5446 43.3737C50.0426 43.6331 49.6458 44.0012 49.3573 44.4764L49.6155 44.6332C49.8746 44.2064 50.2296 43.8765 50.6833 43.642L50.5446 43.3737ZM52.2246 42.9783C51.6067 42.9783 51.0451 43.1093 50.5434 43.3743L50.6844 43.6414C51.1384 43.4017 51.6507 43.2804 52.2246 43.2804V42.9783ZM53.7524 43.2815C53.3005 43.0782 52.7902 42.9783 52.2246 42.9783V43.2804C52.7544 43.2804 53.2213 43.3738 53.6284 43.557L53.7524 43.2815ZM54.8735 44.1651C54.5787 43.7796 54.2042 43.4848 53.7524 43.2815L53.6284 43.557C54.0357 43.7403 54.3699 44.0039 54.6335 44.3486L54.8735 44.1651ZM53.6541 45.4406L54.8541 44.3695L54.6529 44.1442L53.4529 45.2153L53.6541 45.4406ZM52.3213 44.8186C52.7387 44.8186 53.1088 45.01 53.4351 45.4218L53.6719 45.2342C53.3003 44.7654 52.8488 44.5165 52.3213 44.5165V44.8186ZM51.4731 45.1574C51.6824 44.9341 51.96 44.8186 52.3213 44.8186V44.5165C51.888 44.5165 51.5266 44.6587 51.2527 44.9509L51.4731 45.1574ZM51.1515 46.077C51.1515 45.6769 51.2632 45.3767 51.472 45.1586L51.2538 44.9497C50.9794 45.2363 50.8495 45.6179 50.8495 46.077H51.1515ZM51.4731 47.0045C51.2631 46.7806 51.1515 46.4769 51.1515 46.077H50.8495C50.8495 46.5361 50.9794 46.9196 51.2527 47.2111L51.4731 47.0045ZM52.3213 47.3353C51.959 47.3353 51.6811 47.2218 51.472 47.0034L51.2538 47.2123C51.5279 47.4986 51.889 47.6374 52.3213 47.6374V47.3353ZM53.4351 46.7321C53.1088 47.1439 52.7387 47.3353 52.3213 47.3353V47.6374C52.8488 47.6374 53.3003 47.3886 53.6719 46.9198L53.4351 46.7321ZM54.8541 47.7844L53.6541 46.7133L53.4529 46.9386L54.6529 48.0098L54.8541 47.7844ZM53.7524 48.8724C54.2042 48.6691 54.5787 48.3743 54.8735 47.9888L54.6335 47.8053C54.3699 48.15 54.0357 48.4137 53.6284 48.597L53.7524 48.8724ZM52.2246 49.1756C52.7902 49.1756 53.3005 49.0758 53.7524 48.8724L53.6284 48.5969C53.2213 48.7802 52.7544 48.8736 52.2246 48.8736V49.1756ZM57.2029 43.1071H55.3023V43.4092H57.2029V43.1071ZM57.354 48.8958V43.2582H57.0519V48.8958H57.354ZM55.3023 49.0468H57.2029V48.7447H55.3023V49.0468ZM55.1512 43.2582V48.8958H55.4533V43.2582H55.1512ZM59.3688 48.78C59.876 49.0448 60.4454 49.1756 61.0736 49.1756V48.8736C60.4885 48.8736 59.9679 48.7521 59.5086 48.5122L59.3688 48.78ZM58.1745 47.6782C58.4632 48.1481 58.8625 48.5155 59.3688 48.78L59.5086 48.5122C59.0485 48.2719 58.6908 47.9414 58.4318 47.52L58.1745 47.6782ZM57.7414 46.077C57.7414 46.6664 57.8849 47.2012 58.1741 47.6775L58.4323 47.5207C58.1738 47.095 58.0434 46.6151 58.0434 46.077H57.7414ZM58.1745 44.4838C57.8849 44.9551 57.7414 45.4876 57.7414 46.077H58.0434C58.0434 45.5389 58.1738 45.0619 58.4318 44.6419L58.1745 44.4838ZM59.3688 43.374C58.862 43.6386 58.4627 44.0091 58.1741 44.4845L58.4323 44.6413C58.6913 44.2146 59.049 43.8818 59.5086 43.6417L59.3688 43.374ZM61.0736 42.9783C60.4454 42.9783 59.876 43.1091 59.3688 43.374L59.5086 43.6417C59.9679 43.4019 60.4885 43.2804 61.0736 43.2804V42.9783ZM62.7784 43.374C62.2713 43.1091 61.7019 42.9783 61.0736 42.9783V43.2804C61.6588 43.2804 62.1793 43.4019 62.6386 43.6417L62.7784 43.374ZM63.9732 44.4845C63.6846 44.0091 63.2852 43.6386 62.7784 43.374L62.6386 43.6417C63.0982 43.8818 63.4559 44.2146 63.715 44.6413L63.9732 44.4845ZM64.4059 46.077C64.4059 45.4876 64.2623 44.9551 63.9728 44.4838L63.7154 44.6419C63.9735 45.0619 64.1038 45.5389 64.1038 46.077H64.4059ZM63.9732 47.6775C64.2623 47.2012 64.4059 46.6664 64.4059 46.077H64.1038C64.1038 46.6151 63.9735 47.095 63.715 47.5207L63.9732 47.6775ZM62.7784 48.78C63.2848 48.5155 63.684 48.1481 63.9728 47.6782L63.7154 47.52C63.4565 47.9414 63.0987 48.2719 62.6386 48.5122L62.7784 48.78ZM61.0736 49.1756C61.7019 49.1756 62.2713 49.0448 62.7784 48.78L62.6386 48.5122C62.1793 48.7521 61.6588 48.8736 61.0736 48.8736V49.1756ZM61.6322 47.1877C61.4695 47.2853 61.2847 47.3353 61.0736 47.3353V47.6374C61.335 47.6374 61.5743 47.5747 61.7876 47.4467L61.6322 47.1877ZM62.0359 46.7544C61.9352 46.9414 61.8004 47.0849 61.6311 47.1884L61.7886 47.4461C62.0059 47.3133 62.1771 47.1293 62.3019 46.8976L62.0359 46.7544ZM62.187 46.077C62.187 46.3413 62.1348 46.5661 62.0352 46.7558L62.3026 46.8962C62.4286 46.6563 62.4891 46.3818 62.4891 46.077H62.187ZM62.0359 45.4076C62.1347 45.5911 62.187 45.8125 62.187 46.077H62.4891C62.4891 45.7723 62.4286 45.4998 62.3019 45.2644L62.0359 45.4076ZM61.6338 44.9752C61.8005 45.0725 61.9345 45.2144 62.0352 45.4062L62.3026 45.2658C62.1779 45.0282 62.0058 44.8425 61.786 44.7143L61.6338 44.9752ZM61.0736 44.8186C61.2833 44.8186 61.4672 44.8706 61.6295 44.9726L61.7902 44.7169C61.5767 44.5826 61.3364 44.5165 61.0736 44.5165V44.8186ZM60.5081 44.9736C60.6766 44.8706 60.8639 44.8186 61.0736 44.8186V44.5165C60.8108 44.5165 60.5686 44.5826 60.3506 44.7159L60.5081 44.9736ZM60.112 45.4062C60.2133 45.2133 60.3454 45.0713 60.507 44.9743L60.3516 44.7152C60.1375 44.8437 59.9688 45.0292 59.8446 45.2658L60.112 45.4062ZM59.9602 46.077C59.9602 45.8125 60.0125 45.5911 60.1113 45.4076L59.8453 45.2644C59.7186 45.4998 59.6582 45.7723 59.6582 46.077H59.9602ZM60.112 46.7558C60.0125 46.5661 59.9602 46.3413 59.9602 46.077H59.6582C59.6582 46.3818 59.7187 46.6563 59.8446 46.8962L60.112 46.7558ZM60.5097 47.1894C60.3455 47.0861 60.2126 46.9425 60.1113 46.7544L59.8453 46.8976C59.9696 47.1282 60.1374 47.3121 60.349 47.4451L60.5097 47.1894ZM61.0736 47.3353C60.8626 47.3353 60.6743 47.2853 60.5054 47.1868L60.3532 47.4477C60.5709 47.5747 60.8122 47.6374 61.0736 47.6374V47.3353ZM63.0226 41.3595H61.2911V41.6616H63.0226V41.3595ZM61.5312 42.9164L63.1178 41.6278L62.9274 41.3933L61.3408 42.6819L61.5312 42.9164ZM60.228 42.9502H61.436V42.6481H60.228V42.9502ZM61.1746 41.4144L60.1115 42.703L60.3445 42.8952L61.4076 41.6066L61.1746 41.4144ZM68.9393 49.0468H70.5017V48.7447H68.9393V49.0468ZM66.6812 46.4316L68.8234 48.9927L69.0551 48.7988L66.9129 46.2378L66.6812 46.4316ZM66.948 48.8958V46.3347H66.646V48.8958H66.948ZM64.9447 49.0468H66.797V48.7447H64.9447V49.0468ZM64.7936 43.2582V48.8958H65.0957V43.2582H64.7936ZM66.5071 43.1071H64.9447V43.4092H66.5071V43.1071ZM68.7652 45.7223L66.6229 43.1613L66.3912 43.3551L68.5335 45.9162L68.7652 45.7223ZM68.4983 43.2582V45.8192H68.8004V43.2582H68.4983ZM70.5017 43.1071H68.6494V43.4092H70.5017V43.1071ZM70.6527 48.8958V43.2582H70.3507V48.8958H70.6527ZM3.72128 40.3797C3.23997 40.3797 2.77638 40.3209 2.33009 40.2038L2.2534 40.496C2.7257 40.6199 3.21512 40.6818 3.72128 40.6818V40.3797ZM5.13984 40.1263C4.77523 40.2925 4.30466 40.3797 3.72128 40.3797V40.6818C4.33205 40.6818 4.84895 40.5909 5.26513 40.4012L5.13984 40.1263ZM5.96382 39.4738C5.7877 39.738 5.51688 39.9569 5.14059 40.126L5.26438 40.4015C5.68036 40.2146 6.00088 39.9628 6.21515 39.6414L5.96382 39.4738ZM6.23986 38.5845C6.23986 38.9038 6.14884 39.1989 5.96419 39.4733L6.21478 39.6419C6.432 39.3192 6.54193 38.9656 6.54193 38.5845H6.23986ZM6.07256 37.8796C6.1806 38.0564 6.23986 38.2883 6.23986 38.5845H6.54193C6.54193 38.2492 6.47488 37.9586 6.33031 37.7221L6.07256 37.8796ZM5.63881 37.4206C5.81798 37.5332 5.96147 37.684 6.07008 37.8754L6.33279 37.7263C6.20027 37.4928 6.02227 37.3049 5.79956 37.1649L5.63881 37.4206ZM5.00377 37.1273C5.23775 37.198 5.44828 37.2954 5.63624 37.419L5.80213 37.1665C5.58821 37.0259 5.35094 36.9167 5.09118 36.8381L5.00377 37.1273ZM4.28454 36.9325C4.52568 36.983 4.76406 37.0475 4.99971 37.126L5.09524 36.8394C4.84864 36.7572 4.59903 36.6897 4.34643 36.6368L4.28454 36.9325ZM3.61101 36.7857C3.81812 36.8317 4.0424 36.8806 4.28384 36.9323L4.34713 36.637C4.10632 36.5854 3.88279 36.5366 3.67654 36.4908L3.61101 36.7857ZM3.07608 36.5788C3.21852 36.663 3.39666 36.7307 3.60616 36.7845L3.68139 36.492C3.48901 36.4425 3.33991 36.3839 3.22975 36.3188L3.07608 36.5788ZM2.82103 36.1302C2.82103 36.3182 2.91138 36.4693 3.06913 36.5745L3.23669 36.3231C3.15332 36.2675 3.1231 36.2062 3.1231 36.1302H2.82103ZM2.94804 35.7613C2.86373 35.8686 2.82103 35.9934 2.82103 36.1302H3.1231C3.1231 36.0603 3.14356 36.0014 3.18556 35.9479L2.94804 35.7613ZM3.33078 35.5213C3.17141 35.5723 3.03674 35.6484 2.94804 35.7613L3.18556 35.9479C3.22315 35.9001 3.29517 35.8498 3.42285 35.809L3.33078 35.5213ZM3.94518 35.4366C3.70078 35.4366 3.49199 35.4632 3.32566 35.523L3.42797 35.8072C3.54869 35.7638 3.71882 35.7387 3.94518 35.7387V35.4366ZM4.80478 35.563C4.51141 35.4792 4.22473 35.4366 3.94518 35.4366V35.7387C4.19382 35.7387 4.45254 35.7765 4.7218 35.8534L4.80478 35.563ZM5.68761 35.9198C5.39133 35.7598 5.09611 35.6402 4.80202 35.5622L4.72456 35.8542C4.9931 35.9254 5.26624 36.0355 5.54408 36.1856L5.68761 35.9198ZM6.00165 34.7289L5.47634 35.9948L5.75534 36.1105L6.28065 34.8446L6.00165 34.7289ZM5.08337 34.5466C5.45521 34.6299 5.78213 34.754 6.06568 34.9176L6.21663 34.6559C5.90311 34.475 5.54683 34.3408 5.14936 34.2518L5.08337 34.5466ZM3.9538 34.4125C4.33814 34.4125 4.71371 34.457 5.08078 34.546L5.15195 34.2524C4.7612 34.1577 4.36173 34.1104 3.9538 34.1104V34.4125ZM2.53449 34.6662C2.90547 34.4995 3.37653 34.4125 3.9538 34.4125V34.1104C3.3484 34.1104 2.83199 34.2014 2.4107 34.3906L2.53449 34.6662ZM1.70151 35.32C1.8836 35.0547 2.158 34.8353 2.53449 34.6662L2.4107 34.3906C1.99491 34.5774 1.67223 34.8288 1.45245 35.1491L1.70151 35.32ZM1.43522 36.2163C1.43522 35.8835 1.52447 35.5856 1.70265 35.3183L1.45131 35.1508C1.23909 35.4691 1.13315 35.8257 1.13315 36.2163H1.43522ZM1.60346 36.94C1.49462 36.7569 1.43522 36.5186 1.43522 36.2163H1.13315C1.13315 36.557 1.20005 36.8526 1.34382 37.0944L1.60346 36.94ZM2.04745 37.399C1.86528 37.2793 1.71729 37.1262 1.60251 36.9384L1.34477 37.0959C1.4826 37.3215 1.66186 37.5071 1.88156 37.6515L2.04745 37.399ZM2.67536 37.692C2.44488 37.6152 2.23491 37.5168 2.04488 37.3974L1.88413 37.6531C2.09598 37.7863 2.32807 37.8946 2.57984 37.9786L2.67536 37.692ZM3.39124 37.8857C3.15547 37.8351 2.91652 37.7705 2.67436 37.6917L2.58084 37.9789C2.83242 38.0608 3.08146 38.1282 3.32795 38.181L3.39124 37.8857ZM4.06891 38.0421C3.86535 37.9897 3.63918 37.9376 3.39053 37.8855L3.32865 38.1812C3.57374 38.2325 3.79537 38.2836 3.99369 38.3346L4.06891 38.0421ZM4.60325 38.259C4.45948 38.1675 4.27976 38.0963 4.06891 38.0421L3.99369 38.3346C4.18471 38.3837 4.33224 38.4446 4.44108 38.5138L4.60325 38.259ZM4.86265 38.7137C4.86265 38.5191 4.76862 38.3642 4.60325 38.259L4.44108 38.5138C4.52832 38.5694 4.56059 38.6326 4.56059 38.7137H4.86265ZM4.71926 39.0745C4.81275 38.9732 4.86265 38.8509 4.86265 38.7137H4.56059C4.56059 38.7716 4.5416 38.8216 4.4973 38.8696L4.71926 39.0745ZM4.34429 39.2881C4.49908 39.2386 4.63098 39.1708 4.71962 39.0741L4.49695 38.87C4.45928 38.911 4.3845 38.9581 4.25223 39.0004L4.34429 39.2881ZM3.72989 39.3556C3.97207 39.3556 4.17684 39.3351 4.33898 39.2897L4.25754 38.9988C4.13263 39.0338 3.95848 39.0535 3.72989 39.0535V39.3556ZM2.62641 39.1853C2.99579 39.2985 3.36377 39.3556 3.72989 39.3556V39.0535C3.3956 39.0535 3.05743 39.0015 2.71491 38.8965L2.62641 39.1853ZM1.65934 38.7376C1.94132 38.9176 2.26313 39.0662 2.62361 39.1844L2.71771 38.8974C2.37777 38.7859 2.07955 38.6475 1.82186 38.483L1.65934 38.7376ZM1.31882 39.9291L1.87858 38.6717L1.60262 38.5489L1.04287 39.8062L1.31882 39.9291ZM2.33227 40.2044C1.88929 40.081 1.53537 39.9261 1.26577 39.7427L1.09592 39.9925C1.40043 40.1996 1.78711 40.3661 2.25123 40.4954L2.33227 40.2044ZM8.36295 40.4102V34.382H8.06089V40.4102H8.36295ZM9.91703 40.2591H8.21192V40.5612H9.91703V40.2591ZM9.76599 34.382V40.4102H10.0681V34.382H9.76599ZM8.21192 34.533H9.91703V34.231H8.21192V34.533ZM12.3146 40.4102V34.382H12.0125V40.4102H12.3146ZM16.7449 40.2591H12.1635V40.5612H16.7449V40.2591ZM16.5939 39.0581V40.4102H16.896V39.0581H16.5939ZM13.8686 39.2092H16.7449V38.9071H13.8686V39.2092ZM13.7176 34.382V39.0581H14.0197V34.382H13.7176ZM12.1635 34.533H13.8686V34.231H12.1635V34.533ZM20.0398 40.3508L17.4649 34.3227L17.1871 34.4413L19.762 40.4695L20.0398 40.3508ZM21.5802 40.2591H19.9009V40.5612H21.5802V40.2591ZM24.0248 34.3225L21.4413 40.3507L21.719 40.4697L24.3025 34.4415L24.0248 34.3225ZM22.4758 34.533H24.1637V34.231H22.4758V34.533ZM20.9418 38.3705L22.6147 34.4412L22.3368 34.3228L20.6639 38.2522L20.9418 38.3705ZM19.0294 34.44L20.6634 38.3693L20.9423 38.2534L19.3084 34.324L19.0294 34.44ZM17.326 34.533H19.1689V34.231H17.326V34.533ZM27.0868 37.9903V39.0926H27.3888V37.9903H27.0868ZM27.2378 39.2436H30.3897V38.9415H27.2378V39.2436ZM30.2386 39.0926V40.4102H30.5407V39.0926H30.2386ZM30.3897 40.2591H25.5499V40.5612H30.3897V40.2591ZM25.701 40.4102V34.382H25.3989V40.4102H25.701ZM25.5499 34.533H30.2777V34.231H25.5499V34.533ZM30.1267 34.382V35.6996H30.4288V34.382H30.1267ZM30.2777 35.5486H27.2378V35.8506H30.2777V35.5486ZM27.0868 35.6996V36.7158H27.3888V35.6996H27.0868ZM27.2378 36.8668H29.916V36.5647H27.2378V36.8668ZM29.765 36.7158V37.9903H30.0671V36.7158H29.765ZM29.916 37.8393H27.2378V38.1413H29.916V37.8393ZM32.5203 40.4102V34.382H32.2182V40.4102H32.5203ZM34.0744 40.2591H32.3693V40.5612H34.0744V40.2591ZM33.9233 38.8084V40.4102H34.2254V38.8084H33.9233ZM35.0051 38.6574H34.0744V38.9594H35.0051V38.6574ZM36.2229 40.325L35.1299 38.7233L34.8804 38.8935L35.9734 40.4953L36.2229 40.325ZM37.9238 40.2591H36.0981V40.5612H37.9238V40.2591ZM36.4983 38.6L37.7993 40.4956L38.0483 40.3247L36.7474 38.4291L36.4983 38.6ZM37.3503 37.7084C37.1628 37.9897 36.9002 38.2135 36.5574 38.3784L36.6883 38.6506C37.0749 38.4646 37.3811 38.2068 37.6016 37.876L37.3503 37.7084ZM37.6522 36.6124C37.6522 37.0408 37.5495 37.4044 37.3496 37.7094L37.6023 37.875C37.8388 37.5141 37.9543 37.0912 37.9543 36.6124H37.6522ZM37.3496 35.5068C37.5493 35.8116 37.6522 36.1779 37.6522 36.6124H37.9543C37.9543 36.1284 37.839 35.7024 37.6023 35.3412L37.3496 35.5068ZM36.4848 34.7871C36.8622 34.9542 37.1483 35.1941 37.349 35.5058L37.603 35.3422C37.3674 34.9765 37.0334 34.6997 36.6071 34.5109L36.4848 34.7871ZM35.125 34.533C35.6604 34.533 36.1118 34.6195 36.484 34.7867L36.6078 34.5112C36.1877 34.3225 35.6919 34.231 35.125 34.231V34.533ZM32.3693 34.533H35.125V34.231H32.3693V34.533ZM34.0744 37.6418H35.0217V37.3398H34.0744V37.6418ZM35.0217 37.6418C35.3956 37.6418 35.7034 37.561 35.915 37.3706L35.7129 37.146C35.58 37.2656 35.3596 37.3398 35.0217 37.3398V37.6418ZM35.9131 37.3722C36.1297 37.1836 36.2319 36.9236 36.2319 36.6124H35.9299C35.9299 36.8524 35.8541 37.023 35.7147 37.1444L35.9131 37.3722ZM36.2319 36.6124C36.2319 36.2966 36.1304 36.0333 35.9131 35.844L35.7147 36.0718C35.8534 36.1926 35.9299 36.3656 35.9299 36.6124H36.2319ZM35.915 35.8457C35.7034 35.6553 35.3956 35.5744 35.0217 35.5744V35.8765C35.3596 35.8765 35.58 35.9506 35.7129 36.0702L35.915 35.8457ZM35.0217 35.5744H34.0744V35.8765H35.0217V35.5744ZM33.9233 35.7254V37.4908H34.2254V35.7254H33.9233ZM46.3223 40.3797C45.8618 40.3797 45.4375 40.3076 45.048 40.165L44.9442 40.4486C45.37 40.6046 45.8298 40.6818 46.3223 40.6818V40.3797ZM47.7504 40.1001C47.3365 40.2853 46.8614 40.3797 46.3223 40.3797V40.6818C46.897 40.6818 47.4151 40.581 47.8738 40.3758L47.7504 40.1001ZM48.797 39.299C48.5196 39.6416 48.1713 39.9088 47.7496 40.1004L47.8746 40.3754C48.3371 40.1652 48.7236 39.8697 49.0318 39.489L48.797 39.299ZM47.728 38.5243L48.8131 39.506L49.0157 39.282L47.9307 38.3003L47.728 38.5243ZM47.2523 39.072C47.5077 38.9412 47.7381 38.7527 47.9444 38.5101L47.7143 38.3144C47.5301 38.5311 47.33 38.6928 47.1146 38.8031L47.2523 39.072ZM46.4084 39.2694C46.7173 39.2694 47.0001 39.2044 47.2537 39.0713L47.1133 38.8038C46.9075 38.9119 46.6737 38.9674 46.4084 38.9674V39.2694ZM45.6734 39.1386C45.8994 39.2265 46.1449 39.2694 46.4084 39.2694V38.9674C46.1782 38.9674 45.9702 38.9299 45.7828 38.8571L45.6734 39.1386ZM45.0874 38.7602C45.2522 38.925 45.4482 39.051 45.6734 39.1386L45.7828 38.8571C45.5947 38.7839 45.4347 38.6803 45.301 38.5466L45.0874 38.7602ZM44.7097 38.159C44.8021 38.3869 44.9264 38.5865 45.0834 38.756L45.305 38.5508C45.1749 38.4103 45.0695 38.2424 44.9897 38.0455L44.7097 38.159ZM44.5781 37.3961C44.5781 37.6702 44.6208 37.924 44.7084 38.1557L44.991 38.0488C44.9179 37.8556 44.8802 37.6387 44.8802 37.3961H44.5781ZM44.7084 36.6365C44.6208 36.8682 44.5781 37.122 44.5781 37.3961H44.8802C44.8802 37.1535 44.9179 36.9365 44.991 36.7434L44.7084 36.6365ZM45.0853 36.0427C44.9271 36.2072 44.8023 36.4049 44.7097 36.6332L44.9897 36.7467C45.0693 36.5502 45.1742 36.3861 45.303 36.2521L45.0853 36.0427ZM45.6734 35.6535C45.4469 35.7416 45.2503 35.8714 45.0854 36.0426L45.303 36.2522C45.4366 36.1134 45.5959 36.0078 45.7828 35.9351L45.6734 35.6535ZM46.4084 35.5227C46.1449 35.5227 45.8994 35.5657 45.6734 35.6535L45.7828 35.9351C45.9702 35.8622 46.1782 35.8248 46.4084 35.8248V35.5227ZM47.2537 35.7209C47.0001 35.5878 46.7173 35.5227 46.4084 35.5227V35.8248C46.6737 35.8248 46.9075 35.8803 47.1133 35.9883L47.2537 35.7209ZM47.9444 36.2821C47.7381 36.0394 47.5077 35.851 47.2523 35.7202L47.1146 35.989C47.33 36.0994 47.5301 36.2611 47.7143 36.4777L47.9444 36.2821ZM48.8131 35.2862L47.728 36.2679L47.9307 36.4919L49.0157 35.5102L48.8131 35.2862ZM47.7511 34.6924C48.1715 34.878 48.5191 35.1445 48.7963 35.4923L49.0325 35.3041C48.7241 34.917 48.3368 34.6208 47.8731 34.4161L47.7511 34.6924ZM46.3223 34.4125C46.8614 34.4125 47.3365 34.5069 47.7504 34.6921L47.8738 34.4164C47.4151 34.2112 46.897 34.1104 46.3223 34.1104V34.4125ZM45.0498 34.6351C45.4387 34.4872 45.8624 34.4125 46.3223 34.4125V34.1104C45.8291 34.1104 45.3687 34.1907 44.9424 34.3528L45.0498 34.6351ZM44.0491 35.2497C44.3322 34.9829 44.6649 34.7781 45.0487 34.6355L44.9435 34.3524C44.5236 34.5084 44.1558 34.7341 43.8419 35.0299L44.0491 35.2497ZM43.3952 36.1988C43.554 35.8319 43.7723 35.5157 44.0501 35.2487L43.8408 35.0309C43.5331 35.3266 43.2921 35.6763 43.1179 36.0788L43.3952 36.1988ZM43.1579 37.3961C43.1579 36.9554 43.2376 36.5573 43.3948 36.1995L43.1183 36.078C42.9425 36.4781 42.8558 36.9182 42.8558 37.3961H43.1579ZM43.3952 38.602C43.2376 38.238 43.1579 37.8367 43.1579 37.3961H42.8558C42.8558 37.874 42.9425 38.3166 43.1179 38.722L43.3952 38.602ZM44.0501 39.5434C43.7719 39.2761 43.5535 38.9624 43.3948 38.6012L43.1183 38.7227C43.2926 39.1194 43.5335 39.466 43.8408 39.7612L44.0501 39.5434ZM45.0505 40.1659C44.6659 40.0176 44.3326 39.8096 44.0491 39.5424L43.8419 39.7623C44.1554 40.0577 44.5225 40.286 44.9418 40.4477L45.0505 40.1659ZM50.8591 40.4102V34.382H50.557V40.4102H50.8591ZM55.2894 40.2591H50.708V40.5612H55.2894V40.2591ZM55.1384 39.0581V40.4102H55.4405V39.0581H55.1384ZM52.4132 39.2092H55.2894V38.9071H52.4132V39.2092ZM52.2621 34.382V39.0581H52.5642V34.382H52.2621ZM50.708 34.533H52.4132V34.231H50.708V34.533ZM56.4712 40.4711L59.1322 34.443L58.8559 34.321L56.1949 40.3492L56.4712 40.4711ZM58.0726 40.2591H56.3331V40.5612H58.0726V40.2591ZM58.4025 39.1827L57.9325 40.3539L58.2128 40.4664L58.6828 39.2952L58.4025 39.1827ZM61.0989 39.0879H58.5427V39.39H61.0989V39.0879ZM61.7091 40.3539L61.2391 39.1827L60.9588 39.2952L61.4288 40.4664L61.7091 40.3539ZM63.343 40.2591H61.569V40.5612H63.343V40.2591ZM60.5352 34.4432L63.2049 40.4713L63.4811 40.349L60.8114 34.3208L60.5352 34.4432ZM58.9941 34.533H60.6733V34.231H58.9941V34.533ZM59.0472 38.1327H60.5943V37.8306H59.0472V38.1327ZM59.6806 35.9979L58.9071 37.9254L59.1874 38.0379L59.961 36.1104L59.6806 35.9979ZM60.7345 37.9254L59.961 35.9979L59.6806 36.1104L60.4542 38.0379L60.7345 37.9254ZM67.5152 40.3797C66.6534 40.3797 66.0008 40.1441 65.5367 39.6907L65.3256 39.9068C65.8605 40.4293 66.5972 40.6818 67.5152 40.6818V40.3797ZM69.4936 39.6907C69.0295 40.1441 68.3769 40.3797 67.5152 40.3797V40.6818C68.4332 40.6818 69.1699 40.4293 69.7047 39.9068L69.4936 39.6907ZM70.1974 37.7233C70.1974 38.5903 69.9564 39.2386 69.4936 39.6907L69.7047 39.9068C70.2409 39.3829 70.4994 38.6475 70.4994 37.7233H70.1974ZM70.1974 34.382V37.7233H70.4994V34.382H70.1974ZM68.6691 34.533H70.3484V34.231H68.6691V34.533ZM68.8202 37.6717V34.382H68.5181V37.6717H68.8202ZM68.4801 38.8834C68.7185 38.6178 68.8202 38.201 68.8202 37.6717H68.5181C68.5181 38.1757 68.4188 38.4995 68.2553 38.6817L68.4801 38.8834ZM67.5324 39.2694C67.9226 39.2694 68.2453 39.1451 68.4801 38.8834L68.2553 38.6817C68.0883 38.8678 67.854 38.9674 67.5324 38.9674V39.2694ZM66.5775 38.885C66.8176 39.1451 67.142 39.2694 67.5324 39.2694V38.9674C67.2108 38.9674 66.9726 38.8678 66.7994 38.6801L66.5775 38.885ZM66.236 37.6717C66.236 38.201 66.3376 38.6178 66.576 38.8834L66.8009 38.6817C66.6374 38.4995 66.5381 38.1757 66.5381 37.6717H66.236ZM66.236 34.382V37.6717H66.5381V34.382H66.236ZM64.6819 34.533H66.387V34.231H64.6819V34.533ZM64.833 37.7233V34.382H64.5309V37.7233H64.833ZM65.5367 39.6907C65.0739 39.2386 64.833 38.5903 64.833 37.7233H64.5309C64.5309 38.6475 64.7894 39.3829 65.3256 39.9068L65.5367 39.6907Z" fill="#E6D5C0" mask="url(#path-1-outside-1_2025_120)"/>
</svg>
